<svg width="301" height="12" viewBox="0 0 301 12" fill="none" xmlns="http://www.w3.org/2000/svg">
<path d="M1.25705 2.18335V4.43283H3.90349V5.45833H1.25705V7.80704H4.2343V8.83254H-1.2204e-05V1.15785H4.2343V2.18335H1.25705ZM5.38843 5.76708C5.38843 5.15692 5.51341 4.61661 5.76335 4.14613C6.02064 3.67565 6.36615 3.31177 6.79987 3.05447C7.24094 2.78983 7.72613 2.65751 8.25542 2.65751C8.73325 2.65751 9.14859 2.75307 9.50145 2.9442C9.86166 3.12798 10.1484 3.35955 10.3615 3.6389V2.75675H11.6296V8.83254H10.3615V7.92834C10.1484 8.21504 9.85798 8.45395 9.49042 8.64509C9.12286 8.83622 8.70384 8.93178 8.23336 8.93178C7.71142 8.93178 7.23359 8.79946 6.79987 8.53482C6.36615 8.26282 6.02064 7.88791 5.76335 7.41008C5.51341 6.9249 5.38843 6.37723 5.38843 5.76708ZM10.3615 5.78913C10.3615 5.37011 10.2733 5.00622 10.0969 4.69747C9.92782 4.38872 9.70361 4.15348 9.42426 3.99175C9.14491 3.83003 8.84351 3.74916 8.52006 3.74916C8.19661 3.74916 7.8952 3.83003 7.61586 3.99175C7.33651 4.14613 7.10862 4.37769 6.93219 4.68645C6.76311 4.98785 6.67858 5.34806 6.67858 5.76708C6.67858 6.1861 6.76311 6.55366 6.93219 6.86976C7.10862 7.18587 7.33651 7.42846 7.61586 7.59753C7.90256 7.75926 8.20396 7.84013 8.52006 7.84013C8.84351 7.84013 9.14491 7.75926 9.42426 7.59753C9.70361 7.43581 9.92782 7.20057 10.0969 6.89182C10.2733 6.57571 10.3615 6.20815 10.3615 5.78913ZM14.5626 3.6389C14.7464 3.33014 14.989 3.09123 15.2904 2.92215C15.5991 2.74572 15.963 2.65751 16.3821 2.65751V3.95867H16.0623C15.5697 3.95867 15.1948 4.08364 14.9375 4.33359C14.6876 4.58353 14.5626 5.01725 14.5626 5.63476V8.83254H13.3056V2.75675H14.5626V3.6389ZM20.6278 2.65751C21.1057 2.65751 21.532 2.75675 21.907 2.95523C22.2892 3.15371 22.5869 3.44776 22.8001 3.83738C23.0133 4.22699 23.1199 4.69747 23.1199 5.24882V8.83254H21.8739V5.43627C21.8739 4.89228 21.7379 4.47694 21.4659 4.19024C21.1939 3.89619 20.8226 3.74916 20.3522 3.74916C19.8817 3.74916 19.5068 3.89619 19.2274 4.19024C18.9554 4.47694 18.8194 4.89228 18.8194 5.43627V8.83254H17.5624V2.75675H18.8194V3.45144C19.0253 3.2015 19.2862 3.00669 19.6023 2.86702C19.9258 2.72734 20.2676 2.65751 20.6278 2.65751ZM25.3878 1.95179C25.1599 1.95179 24.9687 1.8746 24.8144 1.72022C24.66 1.56585 24.5828 1.37472 24.5828 1.14683C24.5828 0.918939 24.66 0.727807 24.8144 0.573431C24.9687 0.419055 25.1599 0.341867 25.3878 0.341867C25.6083 0.341867 25.7958 0.419055 25.9501 0.573431C26.1045 0.727807 26.1817 0.918939 26.1817 1.14683C26.1817 1.37472 26.1045 1.56585 25.9501 1.72022C25.7958 1.8746 25.6083 1.95179 25.3878 1.95179ZM26.0053 2.75675V8.83254H24.7482V2.75675H26.0053ZM30.746 2.65751C31.2238 2.65751 31.6502 2.75675 32.0251 2.95523C32.4073 3.15371 32.7051 3.44776 32.9183 3.83738C33.1314 4.22699 33.238 4.69747 33.238 5.24882V8.83254H31.992V5.43627C31.992 4.89228 31.856 4.47694 31.584 4.19024C31.312 3.89619 30.9408 3.74916 30.4703 3.74916C29.9998 3.74916 29.6249 3.89619 29.3456 4.19024C29.0736 4.47694 28.9376 4.89228 28.9376 5.43627V8.83254H27.6805V2.75675H28.9376V3.45144C29.1434 3.2015 29.4044 3.00669 29.7205 2.86702C30.0439 2.72734 30.3858 2.65751 30.746 2.65751ZM37.3143 2.65751C37.7848 2.65751 38.2001 2.75307 38.5603 2.9442C38.9279 3.12798 39.2146 3.35955 39.4204 3.6389V2.75675H40.6885V8.93178C40.6885 9.49048 40.5709 9.98669 40.3356 10.4204C40.1004 10.8615 39.7586 11.207 39.3101 11.4569C38.8691 11.7069 38.3398 11.8318 37.7223 11.8318C36.8989 11.8318 36.2153 11.637 35.6713 11.2474C35.1273 10.8652 34.8185 10.3432 34.745 9.68161H35.9911C36.0866 9.99771 36.2888 10.2513 36.5975 10.4425C36.9136 10.6409 37.2886 10.7402 37.7223 10.7402C38.2295 10.7402 38.6375 10.5858 38.9463 10.2771C39.2624 9.96831 39.4204 9.51988 39.4204 8.93178V7.91731C39.2072 8.20401 38.9169 8.4466 38.5493 8.64509C38.1891 8.83622 37.7774 8.93178 37.3143 8.93178C36.785 8.93178 36.2998 8.79946 35.8587 8.53482C35.425 8.26282 35.0795 7.88791 34.8222 7.41008C34.5723 6.9249 34.4473 6.37723 34.4473 5.76708C34.4473 5.15692 34.5723 4.61661 34.8222 4.14613C35.0795 3.67565 35.425 3.31177 35.8587 3.05447C36.2998 2.78983 36.785 2.65751 37.3143 2.65751ZM39.4204 5.78913C39.4204 5.37011 39.3322 5.00622 39.1558 4.69747C38.9867 4.38872 38.7625 4.15348 38.4831 3.99175C38.2038 3.83003 37.9024 3.74916 37.5789 3.74916C37.2555 3.74916 36.9541 3.83003 36.6747 3.99175C36.3954 4.14613 36.1675 4.37769 35.9911 4.68645C35.822 4.98785 35.7374 5.34806 35.7374 5.76708C35.7374 6.1861 35.822 6.55366 35.9911 6.86976C36.1675 7.18587 36.3954 7.42846 36.6747 7.59753C36.9614 7.75926 37.2628 7.84013 37.5789 7.84013C37.9024 7.84013 38.2038 7.75926 38.4831 7.59753C38.7625 7.43581 38.9867 7.20057 39.1558 6.89182C39.3322 6.57571 39.4204 6.20815 39.4204 5.78913ZM48.7492 8.90973C48.0361 8.90973 47.3782 8.74433 46.7754 8.41352C46.1799 8.07536 45.7058 7.60856 45.3529 7.01311C45.0074 6.41031 44.8346 5.734 44.8346 4.98417C44.8346 4.23435 45.0074 3.56171 45.3529 2.96626C45.7058 2.37081 46.1799 1.90768 46.7754 1.57687C47.3782 1.23872 48.0361 1.06964 48.7492 1.06964C49.4696 1.06964 50.1275 1.23872 50.723 1.57687C51.3258 1.90768 51.7999 2.37081 52.1454 2.96626C52.4909 3.56171 52.6637 4.23435 52.6637 4.98417C52.6637 5.734 52.4909 6.41031 52.1454 7.01311C51.7999 7.60856 51.3258 8.07536 50.723 8.41352C50.1275 8.74433 49.4696 8.90973 48.7492 8.90973ZM48.7492 7.81807C49.2564 7.81807 49.7085 7.70413 50.1055 7.47624C50.5024 7.241 50.8112 6.91019 51.0317 6.48382C51.2596 6.0501 51.3736 5.55022 51.3736 4.98417C51.3736 4.41813 51.2596 3.92192 51.0317 3.49555C50.8112 3.06917 50.5024 2.74204 50.1055 2.51416C49.7085 2.28627 49.2564 2.17232 48.7492 2.17232C48.2419 2.17232 47.7898 2.28627 47.3929 2.51416C46.9959 2.74204 46.6835 3.06917 46.4556 3.49555C46.235 3.92192 46.1248 4.41813 46.1248 4.98417C46.1248 5.55022 46.235 6.0501 46.4556 6.48382C46.6835 6.91019 46.9959 7.241 47.3929 7.47624C47.7898 7.70413 48.2419 7.81807 48.7492 7.81807ZM55.1826 3.64992C55.3958 3.37058 55.6861 3.13534 56.0537 2.9442C56.4213 2.75307 56.8366 2.65751 57.2997 2.65751C57.829 2.65751 58.3105 2.78983 58.7443 3.05447C59.1853 3.31177 59.5308 3.67565 59.7808 4.14613C60.0307 4.61661 60.1557 5.15692 60.1557 5.76708C60.1557 6.37723 60.0307 6.9249 59.7808 7.41008C59.5308 7.88791 59.1853 8.26282 58.7443 8.53482C58.3105 8.79946 57.829 8.93178 57.2997 8.93178C56.8366 8.93178 56.4249 8.83989 56.0647 8.65611C55.7045 8.46498 55.4105 8.22974 55.1826 7.95039V11.7216H53.9255V2.75675H55.1826V3.64992ZM58.8766 5.76708C58.8766 5.34806 58.7884 4.98785 58.6119 4.68645C58.4429 4.37769 58.215 4.14613 57.9283 3.99175C57.6489 3.83003 57.3475 3.74916 57.0241 3.74916C56.708 3.74916 56.4066 3.83003 56.1199 3.99175C55.8405 4.15348 55.6126 4.38872 55.4362 4.69747C55.2671 5.00622 55.1826 5.37011 55.1826 5.78913C55.1826 6.20815 55.2671 6.57571 55.4362 6.89182C55.6126 7.20057 55.8405 7.43581 56.1199 7.59753C56.4066 7.75926 56.708 7.84013 57.0241 7.84013C57.3475 7.84013 57.6489 7.75926 57.9283 7.59753C58.215 7.42846 58.4429 7.18587 58.6119 6.86976C58.7884 6.55366 58.8766 6.1861 58.8766 5.76708ZM62.6807 3.64992C62.8939 3.37058 63.1842 3.13534 63.5518 2.9442C63.9194 2.75307 64.3347 2.65751 64.7978 2.65751C65.3271 2.65751 65.8086 2.78983 66.2424 3.05447C66.6834 3.31177 67.0289 3.67565 67.2789 4.14613C67.5288 4.61661 67.6538 5.15692 67.6538 5.76708C67.6538 6.37723 67.5288 6.9249 67.2789 7.41008C67.0289 7.88791 66.6834 8.26282 66.2424 8.53482C65.8086 8.79946 65.3271 8.93178 64.7978 8.93178C64.3347 8.93178 63.923 8.83989 63.5628 8.65611C63.2026 8.46498 62.9086 8.22974 62.6807 7.95039V11.7216H61.4236V2.75675H62.6807V3.64992ZM66.3747 5.76708C66.3747 5.34806 66.2865 4.98785 66.11 4.68645C65.941 4.37769 65.7131 4.14613 65.4264 3.99175C65.147 3.83003 64.8456 3.74916 64.5222 3.74916C64.2061 3.74916 63.9047 3.83003 63.618 3.99175C63.3386 4.15348 63.1107 4.38872 62.9343 4.69747C62.7652 5.00622 62.6807 5.37011 62.6807 5.78913C62.6807 6.20815 62.7652 6.57571 62.9343 6.89182C63.1107 7.20057 63.3386 7.43581 63.618 7.59753C63.9047 7.75926 64.2061 7.84013 64.5222 7.84013C64.8456 7.84013 65.147 7.75926 65.4264 7.59753C65.7131 7.42846 65.941 7.18587 66.11 6.86976C66.2865 6.55366 66.3747 6.1861 66.3747 5.76708ZM71.5572 8.93178C70.9838 8.93178 70.4655 8.80314 70.0024 8.54584C69.5392 8.2812 69.1754 7.91364 68.9107 7.44316C68.6461 6.96533 68.5137 6.41399 68.5137 5.78913C68.5137 5.17163 68.6497 4.62396 68.9217 4.14613C69.1937 3.6683 69.565 3.30074 70.0354 3.04345C70.5059 2.78615 71.0315 2.65751 71.6123 2.65751C72.193 2.65751 72.7186 2.78615 73.1891 3.04345C73.6596 3.30074 74.0308 3.6683 74.3028 4.14613C74.5748 4.62396 74.7108 5.17163 74.7108 5.78913C74.7108 6.40663 74.5712 6.9543 74.2918 7.43213C74.0125 7.90996 73.6302 8.2812 73.145 8.54584C72.6672 8.80314 72.1379 8.93178 71.5572 8.93178ZM71.5572 7.84013C71.8806 7.84013 72.182 7.76294 72.4614 7.60856C72.7481 7.45419 72.9796 7.22262 73.156 6.91387C73.3325 6.60512 73.4207 6.23021 73.4207 5.78913C73.4207 5.34806 73.3362 4.97682 73.1671 4.67542C72.998 4.36667 72.7738 4.1351 72.4944 3.98073C72.2151 3.82635 71.9137 3.74916 71.5902 3.74916C71.2668 3.74916 70.9654 3.82635 70.686 3.98073C70.414 4.1351 70.1972 4.36667 70.0354 4.67542C69.8737 4.97682 69.7929 5.34806 69.7929 5.78913C69.7929 6.44339 69.9583 6.95063 70.2891 7.31084C70.6272 7.6637 71.0499 7.84013 71.5572 7.84013ZM77.2354 3.6389C77.4192 3.33014 77.6618 3.09123 77.9632 2.92215C78.2719 2.74572 78.6358 2.65751 79.0548 2.65751V3.95867H78.7351C78.2425 3.95867 77.8676 4.08364 77.6103 4.33359C77.3604 4.58353 77.2354 5.01725 77.2354 5.63476V8.83254H75.9783V2.75675H77.2354V3.6389ZM81.7017 3.78224V7.14543C81.7017 7.37332 81.7532 7.53872 81.8561 7.64164C81.9664 7.73721 82.1502 7.78499 82.4074 7.78499H83.1793V8.83254H82.1869C81.6209 8.83254 81.1871 8.70022 80.8857 8.43558C80.5843 8.17093 80.4336 7.74088 80.4336 7.14543V3.78224H79.7169V2.75675H80.4336V1.24607H81.7017V2.75675H83.1793V3.78224H81.7017ZM89.8651 2.75675V8.83254H88.6081V8.1158C88.4096 8.36574 88.1486 8.56422 87.8252 8.71125C87.5091 8.85092 87.1709 8.92076 86.8107 8.92076C86.3329 8.92076 85.9028 8.82151 85.5206 8.62303C85.1457 8.42455 84.8479 8.1305 84.6274 7.74088C84.4142 7.35127 84.3076 6.88079 84.3076 6.32945V2.75675H85.5536V6.14199C85.5536 6.68598 85.6896 7.105 85.9616 7.39905C86.2336 7.68575 86.6049 7.8291 87.0754 7.8291C87.5458 7.8291 87.9171 7.68575 88.1891 7.39905C88.4684 7.105 88.6081 6.68598 88.6081 6.14199V2.75675H89.8651ZM94.614 2.65751C95.0919 2.65751 95.5182 2.75675 95.8931 2.95523C96.2754 3.15371 96.5731 3.44776 96.7863 3.83738C96.9995 4.22699 97.1061 4.69747 97.1061 5.24882V8.83254H95.8601V5.43627C95.8601 4.89228 95.7241 4.47694 95.4521 4.19024C95.1801 3.89619 94.8088 3.74916 94.3384 3.74916C93.8679 3.74916 93.493 3.89619 93.2136 4.19024C92.9416 4.47694 92.8056 4.89228 92.8056 5.43627V8.83254H91.5486V2.75675H92.8056V3.45144C93.0115 3.2015 93.2724 3.00669 93.5885 2.86702C93.912 2.72734 94.2538 2.65751 94.614 2.65751ZM99.374 1.95179C99.1461 1.95179 98.9549 1.8746 98.8006 1.72022C98.6462 1.56585 98.569 1.37472 98.569 1.14683C98.569 0.918939 98.6462 0.727807 98.8006 0.573431C98.9549 0.419055 99.1461 0.341867 99.374 0.341867C99.5945 0.341867 99.7819 0.419055 99.9363 0.573431C100.091 0.727807 100.168 0.918939 100.168 1.14683C100.168 1.37472 100.091 1.56585 99.9363 1.72022C99.7819 1.8746 99.5945 1.95179 99.374 1.95179ZM99.9915 2.75675V8.83254H98.7344V2.75675H99.9915ZM103.133 3.78224V7.14543C103.133 7.37332 103.185 7.53872 103.288 7.64164C103.398 7.73721 103.582 7.78499 103.839 7.78499H104.611V8.83254H103.618C103.052 8.83254 102.619 8.70022 102.317 8.43558C102.016 8.17093 101.865 7.74088 101.865 7.14543V3.78224H101.148V2.75675H101.865V1.24607H103.133V2.75675H104.611V3.78224H103.133ZM111.264 2.75675L107.537 11.6885H106.235L107.47 8.7333L105.078 2.75675H106.478L108.187 7.38802L109.962 2.75675H111.264ZM112.744 8.90973C112.516 8.90973 112.325 8.83254 112.171 8.67817C112.017 8.52379 111.939 8.33266 111.939 8.10477C111.939 7.87688 112.017 7.68575 112.171 7.53137C112.325 7.377 112.516 7.29981 112.744 7.29981C112.965 7.29981 113.152 7.377 113.307 7.53137C113.461 7.68575 113.538 7.87688 113.538 8.10477C113.538 8.33266 113.461 8.52379 113.307 8.67817C113.152 8.83254 112.965 8.90973 112.744 8.90973ZM112.744 4.27845C112.516 4.27845 112.325 4.20126 112.171 4.04689C112.017 3.89251 111.939 3.70138 111.939 3.47349C111.939 3.2456 112.017 3.05447 112.171 2.9001C112.325 2.74572 112.516 2.66853 112.744 2.66853C112.965 2.66853 113.152 2.74572 113.307 2.9001C113.461 3.05447 113.538 3.2456 113.538 3.47349C113.538 3.70138 113.461 3.89251 113.307 4.04689C113.152 4.20126 112.965 4.27845 112.744 4.27845ZM121.835 8.83254L120.07 5.76708H119.111V8.83254H117.854V1.16888H120.5C121.089 1.16888 121.585 1.2718 121.989 1.47763C122.401 1.68347 122.706 1.95914 122.904 2.30465C123.11 2.65015 123.213 3.03609 123.213 3.46247C123.213 3.96235 123.066 4.41813 122.772 4.8298C122.485 5.23411 122.041 5.50978 121.438 5.65681L123.334 8.83254H121.835ZM119.111 4.76363H120.5C120.971 4.76363 121.324 4.64601 121.559 4.41077C121.802 4.17554 121.923 3.85943 121.923 3.46247C121.923 3.0655 121.805 2.75675 121.57 2.53621C121.335 2.30832 120.978 2.19438 120.5 2.19438H119.111V4.76363ZM127.051 8.93178C126.574 8.93178 126.144 8.84724 125.761 8.67817C125.386 8.50174 125.089 8.2665 124.868 7.97245C124.648 7.67105 124.53 7.33657 124.515 6.969H125.816C125.838 7.2263 125.96 7.44316 126.18 7.61959C126.408 7.78867 126.691 7.87321 127.029 7.87321C127.382 7.87321 127.654 7.80704 127.845 7.67472C128.044 7.53505 128.143 7.35862 128.143 7.14543C128.143 6.91755 128.033 6.74847 127.812 6.6382C127.599 6.52793 127.257 6.40663 126.787 6.27431C126.331 6.14934 125.96 6.02805 125.673 5.91043C125.386 5.79281 125.136 5.6127 124.923 5.37011C124.717 5.12752 124.614 4.80774 124.614 4.41077C124.614 4.08732 124.71 3.79327 124.901 3.52863C125.092 3.25663 125.364 3.04345 125.717 2.88907C126.077 2.73469 126.489 2.65751 126.952 2.65751C127.643 2.65751 128.198 2.83394 128.617 3.18679C129.044 3.5323 129.271 4.00646 129.301 4.60926H128.044C128.022 4.33726 127.911 4.1204 127.713 3.95867C127.515 3.79695 127.246 3.71608 126.908 3.71608C126.577 3.71608 126.324 3.77857 126.147 3.90354C125.971 4.02851 125.883 4.19391 125.883 4.39975C125.883 4.56148 125.941 4.69747 126.059 4.80774C126.177 4.91801 126.32 5.00622 126.489 5.07239C126.658 5.1312 126.908 5.20838 127.239 5.30395C127.68 5.42157 128.04 5.54286 128.319 5.66784C128.606 5.78546 128.852 5.96188 129.058 6.19712C129.264 6.43236 129.371 6.74479 129.378 7.13441C129.378 7.47991 129.282 7.78867 129.091 8.06066C128.9 8.33266 128.628 8.54584 128.275 8.70022C127.93 8.8546 127.522 8.93178 127.051 8.93178ZM131.268 8.90973C131.041 8.90973 130.849 8.83254 130.695 8.67817C130.541 8.52379 130.463 8.33266 130.463 8.10477C130.463 7.87688 130.541 7.68575 130.695 7.53137C130.849 7.377 131.041 7.29981 131.268 7.29981C131.489 7.29981 131.676 7.377 131.831 7.53137C131.985 7.68575 132.062 7.87688 132.062 8.10477C132.062 8.33266 131.985 8.52379 131.831 8.67817C131.676 8.83254 131.489 8.90973 131.268 8.90973ZM141.352 1.8746H137.658V4.06894C137.813 3.86311 138.041 3.69035 138.342 3.55068C138.651 3.41101 138.978 3.34117 139.323 3.34117C139.941 3.34117 140.441 3.47349 140.823 3.73814C141.213 4.00278 141.488 4.33726 141.65 4.74158C141.819 5.1459 141.904 5.57227 141.904 6.02069C141.904 6.56469 141.797 7.04987 141.584 7.47624C141.378 7.89526 141.066 8.22606 140.647 8.46866C140.235 8.71125 139.728 8.83254 139.125 8.83254C138.324 8.83254 137.68 8.63406 137.195 8.23709C136.71 7.84013 136.42 7.31451 136.324 6.66025H137.548C137.629 7.00576 137.809 7.28143 138.088 7.48727C138.368 7.68575 138.717 7.78499 139.136 7.78499C139.658 7.78499 140.047 7.62694 140.305 7.31084C140.569 6.99473 140.702 6.57571 140.702 6.05378C140.702 5.52449 140.569 5.12017 140.305 4.84082C140.04 4.55412 139.65 4.41077 139.136 4.41077C138.776 4.41077 138.471 4.50267 138.221 4.68645C137.978 4.86288 137.802 5.10547 137.691 5.41422H136.5V0.771915H141.352V1.8746ZM144.781 7.32186L143.447 10.3653H142.631L143.413 7.32186H144.781ZM150.921 1.8746H147.227V4.06894C147.382 3.86311 147.609 3.69035 147.911 3.55068C148.22 3.41101 148.547 3.34117 148.892 3.34117C149.51 3.34117 150.01 3.47349 150.392 3.73814C150.782 4.00278 151.057 4.33726 151.219 4.74158C151.388 5.1459 151.473 5.57227 151.473 6.02069C151.473 6.56469 151.366 7.04987 151.153 7.47624C150.947 7.89526 150.634 8.22606 150.215 8.46866C149.804 8.71125 149.297 8.83254 148.694 8.83254C147.892 8.83254 147.249 8.63406 146.764 8.23709C146.279 7.84013 145.988 7.31451 145.893 6.66025H147.117C147.198 7.00576 147.378 7.28143 147.657 7.48727C147.937 7.68575 148.286 7.78499 148.705 7.78499C149.227 7.78499 149.616 7.62694 149.874 7.31084C150.138 6.99473 150.271 6.57571 150.271 6.05378C150.271 5.52449 150.138 5.12017 149.874 4.84082C149.609 4.55412 149.219 4.41077 148.705 4.41077C148.345 4.41077 148.039 4.50267 147.79 4.68645C147.547 4.86288 147.371 5.10547 147.26 5.41422H146.069V0.771915H150.921V1.8746ZM152.784 2.7788C152.828 2.09514 153.089 1.56217 153.567 1.17991C154.052 0.797644 154.669 0.606511 155.419 0.606511C155.934 0.606511 156.379 0.698402 156.754 0.882183C157.128 1.06596 157.411 1.31591 157.603 1.63201C157.794 1.94811 157.889 2.30465 157.889 2.70161C157.889 3.15739 157.768 3.547 157.525 3.87046C157.283 4.19391 156.992 4.41077 156.654 4.52104V4.56515C157.088 4.69747 157.426 4.94006 157.669 5.29292C157.911 5.63843 158.033 6.08318 158.033 6.62717C158.033 7.06089 157.933 7.44683 157.735 7.78499C157.536 8.12315 157.242 8.39147 156.853 8.58995C156.463 8.78108 155.996 8.87665 155.452 8.87665C154.658 8.87665 154.004 8.67449 153.49 8.27017C152.982 7.8585 152.71 7.2704 152.674 6.50588H153.887C153.916 6.89549 154.067 7.21527 154.339 7.46521C154.611 7.7078 154.978 7.8291 155.441 7.8291C155.89 7.8291 156.235 7.7078 156.478 7.46521C156.72 7.21527 156.842 6.89549 156.842 6.50588C156.842 5.99129 156.676 5.6274 156.346 5.41422C156.022 5.19368 155.522 5.08341 154.846 5.08341H154.559V4.04689H154.857C155.452 4.03954 155.904 3.9403 156.213 3.74916C156.529 3.55803 156.687 3.25663 156.687 2.84496C156.687 2.4921 156.573 2.21276 156.346 2.00692C156.118 1.79374 155.794 1.68714 155.375 1.68714C154.964 1.68714 154.644 1.79374 154.416 2.00692C154.188 2.21276 154.052 2.47005 154.008 2.7788H152.784ZM159.378 4.7085C159.378 3.43674 159.591 2.44432 160.018 1.73125C160.451 1.01083 161.194 0.650619 162.245 0.650619C163.296 0.650619 164.035 1.01083 164.461 1.73125C164.895 2.44432 165.112 3.43674 165.112 4.7085C165.112 5.99497 164.895 7.00208 164.461 7.72986C164.035 8.45028 163.296 8.81049 162.245 8.81049C161.194 8.81049 160.451 8.45028 160.018 7.72986C159.591 7.00208 159.378 5.99497 159.378 4.7085ZM163.877 4.7085C163.877 4.11305 163.836 3.60949 163.756 3.19782C163.682 2.78615 163.528 2.45167 163.292 2.19438C163.057 1.92973 162.708 1.79741 162.245 1.79741C161.782 1.79741 161.433 1.92973 161.197 2.19438C160.962 2.45167 160.804 2.78615 160.723 3.19782C160.65 3.60949 160.613 4.11305 160.613 4.7085C160.613 5.326 160.65 5.84427 160.723 6.26329C160.797 6.68231 160.951 7.02046 161.186 7.27776C161.429 7.53505 161.782 7.6637 162.245 7.6637C162.708 7.6637 163.057 7.53505 163.292 7.27776C163.535 7.02046 163.693 6.68231 163.767 6.26329C163.84 5.84427 163.877 5.326 163.877 4.7085Z" fill="url(#paint0_linear_1_171)"/>
<path d="M173.999 10.0786H172.742V3.45953e-05H173.999V10.0786ZM184.314 8.90973C183.8 8.90973 183.337 8.82151 182.925 8.64509C182.513 8.4613 182.19 8.20401 181.955 7.87321C181.719 7.5424 181.602 7.15646 181.602 6.71539H182.947C182.976 7.04619 183.105 7.31819 183.333 7.53137C183.568 7.74456 183.895 7.85115 184.314 7.85115C184.748 7.85115 185.086 7.74823 185.329 7.5424C185.571 7.32921 185.693 7.05722 185.693 6.72641C185.693 6.46912 185.615 6.25961 185.461 6.09788C185.314 5.93616 185.127 5.81118 184.899 5.72297C184.678 5.63476 184.369 5.53919 183.972 5.43627C183.473 5.30395 183.065 5.17163 182.748 5.03931C182.44 4.89963 182.175 4.68645 181.955 4.39975C181.734 4.11305 181.624 3.73079 181.624 3.25296C181.624 2.81188 181.734 2.42594 181.955 2.09514C182.175 1.76433 182.484 1.51071 182.881 1.33428C183.278 1.15785 183.737 1.06964 184.259 1.06964C185.002 1.06964 185.608 1.2571 186.079 1.63201C186.556 1.99957 186.821 2.50681 186.872 3.15371H185.483C185.461 2.87437 185.329 2.63545 185.086 2.43697C184.844 2.23849 184.524 2.13924 184.127 2.13924C183.767 2.13924 183.473 2.23113 183.245 2.41492C183.017 2.5987 182.903 2.86334 182.903 3.20885C182.903 3.44409 182.973 3.6389 183.112 3.79327C183.259 3.9403 183.443 4.05792 183.664 4.14613C183.884 4.23435 184.186 4.32991 184.568 4.43283C185.075 4.5725 185.487 4.71218 185.803 4.85185C186.126 4.99152 186.398 5.20838 186.619 5.50243C186.847 5.78913 186.961 6.17507 186.961 6.66025C186.961 7.04987 186.854 7.41743 186.641 7.76294C186.435 8.10845 186.13 8.38779 185.726 8.60098C185.329 8.80681 184.858 8.90973 184.314 8.90973ZM191.104 8.93178C190.531 8.93178 190.013 8.80314 189.549 8.54584C189.086 8.2812 188.722 7.91364 188.458 7.44316C188.193 6.96533 188.061 6.41399 188.061 5.78913C188.061 5.17163 188.197 4.62396 188.469 4.14613C188.741 3.6683 189.112 3.30074 189.583 3.04345C190.053 2.78615 190.579 2.65751 191.159 2.65751C191.74 2.65751 192.266 2.78615 192.736 3.04345C193.207 3.30074 193.578 3.6683 193.85 4.14613C194.122 4.62396 194.258 5.17163 194.258 5.78913C194.258 6.40663 194.118 6.9543 193.839 7.43213C193.56 7.90996 193.177 8.2812 192.692 8.54584C192.214 8.80314 191.685 8.93178 191.104 8.93178ZM191.104 7.84013C191.428 7.84013 191.729 7.76294 192.008 7.60856C192.295 7.45419 192.527 7.22262 192.703 6.91387C192.88 6.60512 192.968 6.23021 192.968 5.78913C192.968 5.34806 192.883 4.97682 192.714 4.67542C192.545 4.36667 192.321 4.1351 192.042 3.98073C191.762 3.82635 191.461 3.74916 191.137 3.74916C190.814 3.74916 190.512 3.82635 190.233 3.98073C189.961 4.1351 189.744 4.36667 189.583 4.67542C189.421 4.97682 189.34 5.34806 189.34 5.78913C189.34 6.44339 189.505 6.95063 189.836 7.31084C190.174 7.6637 190.597 7.84013 191.104 7.84013ZM196.782 0.672673V8.83254H195.525V0.672673H196.782ZM198.039 5.76708C198.039 5.15692 198.164 4.61661 198.414 4.14613C198.671 3.67565 199.016 3.31177 199.45 3.05447C199.891 2.78983 200.38 2.65751 200.917 2.65751C201.314 2.65751 201.703 2.74572 202.086 2.92215C202.475 3.09123 202.784 3.31912 203.012 3.60581V0.672673H204.28V8.83254H203.012V7.91731C202.806 8.21136 202.519 8.45395 202.152 8.64509C201.792 8.83622 201.376 8.93178 200.906 8.93178C200.376 8.93178 199.891 8.79946 199.45 8.53482C199.016 8.26282 198.671 7.88791 198.414 7.41008C198.164 6.9249 198.039 6.37723 198.039 5.76708ZM203.012 5.78913C203.012 5.37011 202.924 5.00622 202.747 4.69747C202.578 4.38872 202.354 4.15348 202.075 3.99175C201.795 3.83003 201.494 3.74916 201.17 3.74916C200.847 3.74916 200.545 3.83003 200.266 3.99175C199.987 4.14613 199.759 4.37769 199.582 4.68645C199.413 4.98785 199.329 5.34806 199.329 5.76708C199.329 6.1861 199.413 6.55366 199.582 6.86976C199.759 7.18587 199.987 7.42846 200.266 7.59753C200.553 7.75926 200.854 7.84013 201.17 7.84013C201.494 7.84013 201.795 7.75926 202.075 7.59753C202.354 7.43581 202.578 7.20057 202.747 6.89182C202.924 6.57571 203.012 6.20815 203.012 5.78913ZM206.463 8.90973C206.235 8.90973 206.044 8.83254 205.89 8.67817C205.735 8.52379 205.658 8.33266 205.658 8.10477C205.658 7.87688 205.735 7.68575 205.89 7.53137C206.044 7.377 206.235 7.29981 206.463 7.29981C206.684 7.29981 206.871 7.377 207.025 7.53137C207.18 7.68575 207.257 7.87688 207.257 8.10477C207.257 8.33266 207.18 8.52379 207.025 8.67817C206.871 8.83254 206.684 8.90973 206.463 8.90973ZM206.463 4.27845C206.235 4.27845 206.044 4.20126 205.89 4.04689C205.735 3.89251 205.658 3.70138 205.658 3.47349C205.658 3.2456 205.735 3.05447 205.89 2.9001C206.044 2.74572 206.235 2.66853 206.463 2.66853C206.684 2.66853 206.871 2.74572 207.025 2.9001C207.18 3.05447 207.257 3.2456 207.257 3.47349C207.257 3.70138 207.18 3.89251 207.025 4.04689C206.871 4.20126 206.684 4.27845 206.463 4.27845ZM216.59 1.8746H212.896V4.06894C213.05 3.86311 213.278 3.69035 213.58 3.55068C213.888 3.41101 214.216 3.34117 214.561 3.34117C215.179 3.34117 215.678 3.47349 216.061 3.73814C216.45 4.00278 216.726 4.33726 216.888 4.74158C217.057 5.1459 217.141 5.57227 217.141 6.02069C217.141 6.56469 217.035 7.04987 216.822 7.47624C216.616 7.89526 216.303 8.22606 215.884 8.46866C215.473 8.71125 214.965 8.83254 214.363 8.83254C213.561 8.83254 212.918 8.63406 212.433 8.23709C211.948 7.84013 211.657 7.31451 211.562 6.66025H212.786C212.867 7.00576 213.047 7.28143 213.326 7.48727C213.605 7.68575 213.955 7.78499 214.374 7.78499C214.896 7.78499 215.285 7.62694 215.542 7.31084C215.807 6.99473 215.939 6.57571 215.939 6.05378C215.939 5.52449 215.807 5.12017 215.542 4.84082C215.278 4.55412 214.888 4.41077 214.374 4.41077C214.013 4.41077 213.708 4.50267 213.458 4.68645C213.216 4.86288 213.039 5.10547 212.929 5.41422H211.738V0.771915H216.59V1.8746ZM224.055 8.90973C223.54 8.90973 223.077 8.82151 222.665 8.64509C222.253 8.4613 221.93 8.20401 221.695 7.87321C221.46 7.5424 221.342 7.15646 221.342 6.71539H222.687C222.717 7.04619 222.845 7.31819 223.073 7.53137C223.308 7.74456 223.635 7.85115 224.055 7.85115C224.488 7.85115 224.826 7.74823 225.069 7.5424C225.312 7.32921 225.433 7.05722 225.433 6.72641C225.433 6.46912 225.356 6.25961 225.201 6.09788C225.054 5.93616 224.867 5.81118 224.639 5.72297C224.418 5.63476 224.11 5.53919 223.713 5.43627C223.213 5.30395 222.805 5.17163 222.489 5.03931C222.18 4.89963 221.915 4.68645 221.695 4.39975C221.474 4.11305 221.364 3.73079 221.364 3.25296C221.364 2.81188 221.474 2.42594 221.695 2.09514C221.915 1.76433 222.224 1.51071 222.621 1.33428C223.018 1.15785 223.477 1.06964 223.999 1.06964C224.742 1.06964 225.348 1.2571 225.819 1.63201C226.297 1.99957 226.561 2.50681 226.613 3.15371H225.223C225.201 2.87437 225.069 2.63545 224.826 2.43697C224.584 2.23849 224.264 2.13924 223.867 2.13924C223.507 2.13924 223.213 2.23113 222.985 2.41492C222.757 2.5987 222.643 2.86334 222.643 3.20885C222.643 3.44409 222.713 3.6389 222.853 3.79327C223 3.9403 223.183 4.05792 223.404 4.14613C223.624 4.23435 223.926 4.32991 224.308 4.43283C224.815 4.5725 225.227 4.71218 225.543 4.85185C225.867 4.99152 226.139 5.20838 226.359 5.50243C226.587 5.78913 226.701 6.17507 226.701 6.66025C226.701 7.04987 226.594 7.41743 226.381 7.76294C226.175 8.10845 225.87 8.38779 225.466 8.60098C225.069 8.80681 224.598 8.90973 224.055 8.90973ZM233.778 5.64578C233.778 5.87367 233.763 6.0795 233.734 6.26329H229.091C229.128 6.74847 229.308 7.13808 229.632 7.43213C229.955 7.72618 230.352 7.87321 230.822 7.87321C231.499 7.87321 231.977 7.59018 232.256 7.02414H233.612C233.428 7.58283 233.094 8.04228 232.609 8.40249C232.131 8.75535 231.536 8.93178 230.822 8.93178C230.242 8.93178 229.72 8.80314 229.257 8.54584C228.801 8.2812 228.441 7.91364 228.176 7.44316C227.919 6.96533 227.79 6.41399 227.79 5.78913C227.79 5.16428 227.915 4.61661 228.165 4.14613C228.422 3.6683 228.779 3.30074 229.235 3.04345C229.698 2.78615 230.227 2.65751 230.822 2.65751C231.396 2.65751 231.907 2.78248 232.355 3.03242C232.804 3.28236 233.153 3.63522 233.403 4.091C233.653 4.53942 233.778 5.05768 233.778 5.64578ZM232.465 5.24882C232.458 4.78569 232.293 4.41445 231.969 4.1351C231.646 3.85576 231.245 3.71608 230.767 3.71608C230.334 3.71608 229.962 3.85576 229.654 4.1351C229.345 4.4071 229.161 4.77834 229.102 5.24882H232.465ZM236.297 3.6389C236.48 3.33014 236.723 3.09123 237.024 2.92215C237.333 2.74572 237.697 2.65751 238.116 2.65751V3.95867H237.796C237.304 3.95867 236.929 4.08364 236.672 4.33359C236.422 4.58353 236.297 5.01725 236.297 5.63476V8.83254H235.04V2.75675H236.297V3.6389ZM241.645 7.7078L243.365 2.75675H244.7L242.384 8.83254H240.884L238.58 2.75675H239.925L241.645 7.7078ZM246.314 1.95179C246.086 1.95179 245.895 1.8746 245.741 1.72022C245.586 1.56585 245.509 1.37472 245.509 1.14683C245.509 0.918939 245.586 0.727807 245.741 0.573431C245.895 0.419055 246.086 0.341867 246.314 0.341867C246.535 0.341867 246.722 0.419055 246.876 0.573431C247.031 0.727807 247.108 0.918939 247.108 1.14683C247.108 1.37472 247.031 1.56585 246.876 1.72022C246.722 1.8746 246.535 1.95179 246.314 1.95179ZM246.932 2.75675V8.83254H245.675V2.75675H246.932ZM248.188 5.78913C248.188 5.16428 248.313 4.61661 248.563 4.14613C248.82 3.6683 249.173 3.30074 249.621 3.04345C250.07 2.78615 250.584 2.65751 251.165 2.65751C251.9 2.65751 252.507 2.83394 252.984 3.18679C253.47 3.5323 253.797 4.02851 253.966 4.67542H252.61C252.499 4.37402 252.323 4.13878 252.08 3.9697C251.838 3.80062 251.533 3.71608 251.165 3.71608C250.65 3.71608 250.239 3.89986 249.93 4.26743C249.629 4.62764 249.478 5.13487 249.478 5.78913C249.478 6.44339 249.629 6.9543 249.93 7.32186C250.239 7.68942 250.65 7.87321 251.165 7.87321C251.893 7.87321 252.374 7.55343 252.61 6.91387H253.966C253.789 7.53137 253.459 8.02391 252.973 8.39147C252.488 8.75168 251.885 8.93178 251.165 8.93178C250.584 8.93178 250.07 8.80314 249.621 8.54584C249.173 8.2812 248.82 7.91364 248.563 7.44316C248.313 6.96533 248.188 6.41399 248.188 5.78913ZM260.812 5.64578C260.812 5.87367 260.797 6.0795 260.768 6.26329H256.126C256.162 6.74847 256.342 7.13808 256.666 7.43213C256.989 7.72618 257.386 7.87321 257.857 7.87321C258.533 7.87321 259.011 7.59018 259.29 7.02414H260.647C260.463 7.58283 260.128 8.04228 259.643 8.40249C259.165 8.75535 258.57 8.93178 257.857 8.93178C257.276 8.93178 256.754 8.80314 256.291 8.54584C255.835 8.2812 255.475 7.91364 255.21 7.44316C254.953 6.96533 254.824 6.41399 254.824 5.78913C254.824 5.16428 254.949 4.61661 255.199 4.14613C255.457 3.6683 255.813 3.30074 256.269 3.04345C256.732 2.78615 257.261 2.65751 257.857 2.65751C258.43 2.65751 258.941 2.78248 259.39 3.03242C259.838 3.28236 260.187 3.63522 260.437 4.091C260.687 4.53942 260.812 5.05768 260.812 5.64578ZM259.5 5.24882C259.492 4.78569 259.327 4.41445 259.004 4.1351C258.68 3.85576 258.28 3.71608 257.802 3.71608C257.368 3.71608 256.997 3.85576 256.688 4.1351C256.379 4.4071 256.195 4.77834 256.137 5.24882H259.5ZM264.279 8.93178C263.801 8.93178 263.371 8.84724 262.989 8.67817C262.614 8.50174 262.317 8.2665 262.096 7.97245C261.875 7.67105 261.758 7.33657 261.743 6.969H263.044C263.066 7.2263 263.188 7.44316 263.408 7.61959C263.636 7.78867 263.919 7.87321 264.257 7.87321C264.61 7.87321 264.882 7.80704 265.073 7.67472C265.272 7.53505 265.371 7.35862 265.371 7.14543C265.371 6.91755 265.261 6.74847 265.04 6.6382C264.827 6.52793 264.485 6.40663 264.015 6.27431C263.559 6.14934 263.188 6.02805 262.901 5.91043C262.614 5.79281 262.364 5.6127 262.151 5.37011C261.945 5.12752 261.842 4.80774 261.842 4.41077C261.842 4.08732 261.938 3.79327 262.129 3.52863C262.32 3.25663 262.592 3.04345 262.945 2.88907C263.305 2.73469 263.717 2.65751 264.18 2.65751C264.871 2.65751 265.426 2.83394 265.845 3.18679C266.271 3.5323 266.499 4.00646 266.529 4.60926H265.272C265.25 4.33726 265.139 4.1204 264.941 3.95867C264.742 3.79695 264.474 3.71608 264.136 3.71608C263.805 3.71608 263.552 3.77857 263.375 3.90354C263.199 4.02851 263.11 4.19391 263.11 4.39975C263.11 4.56148 263.169 4.69747 263.287 4.80774C263.405 4.91801 263.548 5.00622 263.717 5.07239C263.886 5.1312 264.136 5.20838 264.467 5.30395C264.908 5.42157 265.268 5.54286 265.547 5.66784C265.834 5.78546 266.08 5.96188 266.286 6.19712C266.492 6.43236 266.599 6.74479 266.606 7.13441C266.606 7.47991 266.51 7.78867 266.319 8.06066C266.128 8.33266 265.856 8.54584 265.503 8.70022C265.158 8.8546 264.75 8.93178 264.279 8.93178ZM273.084 8.93178C272.606 8.93178 272.176 8.84724 271.794 8.67817C271.419 8.50174 271.121 8.2665 270.9 7.97245C270.68 7.67105 270.562 7.33657 270.548 6.969H271.849C271.871 7.2263 271.992 7.44316 272.213 7.61959C272.44 7.78867 272.723 7.87321 273.062 7.87321C273.415 7.87321 273.687 7.80704 273.878 7.67472C274.076 7.53505 274.175 7.35862 274.175 7.14543C274.175 6.91755 274.065 6.74847 273.845 6.6382C273.631 6.52793 273.29 6.40663 272.819 6.27431C272.363 6.14934 271.992 6.02805 271.705 5.91043C271.419 5.79281 271.169 5.6127 270.956 5.37011C270.75 5.12752 270.647 4.80774 270.647 4.41077C270.647 4.08732 270.742 3.79327 270.933 3.52863C271.125 3.25663 271.397 3.04345 271.749 2.88907C272.11 2.73469 272.521 2.65751 272.984 2.65751C273.675 2.65751 274.23 2.83394 274.65 3.18679C275.076 3.5323 275.304 4.00646 275.333 4.60926H274.076C274.054 4.33726 273.944 4.1204 273.745 3.95867C273.547 3.79695 273.279 3.71608 272.94 3.71608C272.61 3.71608 272.356 3.77857 272.18 3.90354C272.003 4.02851 271.915 4.19391 271.915 4.39975C271.915 4.56148 271.974 4.69747 272.091 4.80774C272.209 4.91801 272.352 5.00622 272.521 5.07239C272.69 5.1312 272.94 5.20838 273.271 5.30395C273.712 5.42157 274.072 5.54286 274.352 5.66784C274.638 5.78546 274.885 5.96188 275.091 6.19712C275.296 6.43236 275.403 6.74479 275.41 7.13441C275.41 7.47991 275.315 7.78867 275.124 8.06066C274.933 8.33266 274.661 8.54584 274.308 8.70022C273.962 8.8546 273.554 8.93178 273.084 8.93178ZM279.429 8.93178C278.855 8.93178 278.337 8.80314 277.874 8.54584C277.411 8.2812 277.047 7.91364 276.782 7.44316C276.518 6.96533 276.385 6.41399 276.385 5.78913C276.385 5.17163 276.521 4.62396 276.793 4.14613C277.065 3.6683 277.437 3.30074 277.907 3.04345C278.378 2.78615 278.903 2.65751 279.484 2.65751C280.065 2.65751 280.59 2.78615 281.061 3.04345C281.531 3.30074 281.903 3.6683 282.175 4.14613C282.447 4.62396 282.583 5.17163 282.583 5.78913C282.583 6.40663 282.443 6.9543 282.164 7.43213C281.884 7.90996 281.502 8.2812 281.017 8.54584C280.539 8.80314 280.01 8.93178 279.429 8.93178ZM279.429 7.84013C279.752 7.84013 280.054 7.76294 280.333 7.60856C280.62 7.45419 280.851 7.22262 281.028 6.91387C281.204 6.60512 281.292 6.23021 281.292 5.78913C281.292 5.34806 281.208 4.97682 281.039 4.67542C280.87 4.36667 280.646 4.1351 280.366 3.98073C280.087 3.82635 279.785 3.74916 279.462 3.74916C279.139 3.74916 278.837 3.82635 278.558 3.98073C278.286 4.1351 278.069 4.36667 277.907 4.67542C277.745 4.97682 277.665 5.34806 277.665 5.78913C277.665 6.44339 277.83 6.95063 278.161 7.31084C278.499 7.6637 278.922 7.84013 279.429 7.84013ZM289.287 3.78224H288.162V8.83254H286.894V3.78224H286.177V2.75675H286.894V2.3267C286.894 1.62833 287.077 1.1211 287.445 0.804995C287.82 0.481541 288.404 0.319814 289.198 0.319814V1.36736C288.816 1.36736 288.548 1.44088 288.393 1.5879C288.239 1.72757 288.162 1.97384 288.162 2.3267V2.75675H289.287V3.78224ZM290.006 5.76708C290.006 5.15692 290.131 4.61661 290.381 4.14613C290.639 3.67565 290.984 3.31177 291.418 3.05447C291.859 2.78983 292.344 2.65751 292.873 2.65751C293.351 2.65751 293.767 2.75307 294.119 2.9442C294.48 3.12798 294.766 3.35955 294.979 3.6389V2.75675H296.248V8.83254H294.979V7.92834C294.766 8.21504 294.476 8.45395 294.108 8.64509C293.741 8.83622 293.322 8.93178 292.851 8.93178C292.329 8.93178 291.852 8.79946 291.418 8.53482C290.984 8.26282 290.639 7.88791 290.381 7.41008C290.131 6.9249 290.006 6.37723 290.006 5.76708ZM294.979 5.78913C294.979 5.37011 294.891 5.00622 294.715 4.69747C294.546 4.38872 294.322 4.15348 294.042 3.99175C293.763 3.83003 293.461 3.74916 293.138 3.74916C292.815 3.74916 292.513 3.83003 292.234 3.99175C291.954 4.14613 291.727 4.37769 291.55 4.68645C291.381 4.98785 291.297 5.34806 291.297 5.76708C291.297 6.1861 291.381 6.55366 291.55 6.86976C291.727 7.18587 291.954 7.42846 292.234 7.59753C292.52 7.75926 292.822 7.84013 293.138 7.84013C293.461 7.84013 293.763 7.75926 294.042 7.59753C294.322 7.43581 294.546 7.20057 294.715 6.89182C294.891 6.57571 294.979 6.20815 294.979 5.78913ZM299.181 3.6389C299.364 3.33014 299.607 3.09123 299.908 2.92215C300.217 2.74572 300.581 2.65751 301 2.65751V3.95867H300.68C300.188 3.95867 299.813 4.08364 299.555 4.33359C299.306 4.58353 299.181 5.01725 299.181 5.63476V8.83254H297.923V2.75675H299.181V3.6389Z" fill="#282828" fill-opacity="0.8"/>
<defs>
<linearGradient id="paint0_linear_1_171" x1="-0.827026" y1="4.82278" x2="95.7451" y2="18.3878" gradientUnits="userSpaceOnUse">
<stop stop-color="#C6951A"/>
<stop offset="0.5" stop-color="#FFEC9E"/>
<stop offset="1" stop-color="#C6951A"/>
</linearGradient>
</defs>
</svg>
