<svg width="301" height="12" viewBox="0 0 301 12" fill="none" xmlns="http://www.w3.org/2000/svg">
<path d="M1.25705 2.18332V4.4328H3.90349V5.45829H1.25705V7.80701H4.2343V8.83251H-1.2204e-05V1.15782H4.2343V2.18332H1.25705ZM5.38843 5.76705C5.38843 5.15689 5.51341 4.61658 5.76335 4.1461C6.02064 3.67562 6.36615 3.31173 6.79987 3.05444C7.24094 2.7898 7.72613 2.65748 8.25542 2.65748C8.73325 2.65748 9.14859 2.75304 9.50145 2.94417C9.86166 3.12795 10.1484 3.35952 10.3615 3.63886V2.75672H11.6296V8.83251H10.3615V7.92831C10.1484 8.21501 9.85798 8.45392 9.49042 8.64505C9.12286 8.83619 8.70384 8.93175 8.23336 8.93175C7.71142 8.93175 7.23359 8.79943 6.79987 8.53479C6.36615 8.26279 6.02064 7.88788 5.76335 7.41005C5.51341 6.92487 5.38843 6.3772 5.38843 5.76705ZM10.3615 5.7891C10.3615 5.37008 10.2733 5.00619 10.0969 4.69744C9.92782 4.38869 9.70361 4.15345 9.42426 3.99172C9.14491 3.83 8.84351 3.74913 8.52006 3.74913C8.19661 3.74913 7.8952 3.83 7.61586 3.99172C7.33651 4.1461 7.10862 4.37766 6.93219 4.68642C6.76311 4.98782 6.67858 5.34803 6.67858 5.76705C6.67858 6.18607 6.76311 6.55363 6.93219 6.86973C7.10862 7.18583 7.33651 7.42843 7.61586 7.5975C7.90256 7.75923 8.20396 7.84009 8.52006 7.84009C8.84351 7.84009 9.14491 7.75923 9.42426 7.5975C9.70361 7.43578 9.92782 7.20054 10.0969 6.89179C10.2733 6.57568 10.3615 6.20812 10.3615 5.7891ZM14.5626 3.63886C14.7464 3.33011 14.989 3.0912 15.2904 2.92212C15.5991 2.74569 15.963 2.65748 16.3821 2.65748V3.95864H16.0623C15.5697 3.95864 15.1948 4.08361 14.9375 4.33356C14.6876 4.5835 14.5626 5.01722 14.5626 5.63472V8.83251H13.3056V2.75672H14.5626V3.63886ZM20.6278 2.65748C21.1057 2.65748 21.532 2.75672 21.907 2.9552C22.2892 3.15368 22.5869 3.44773 22.8001 3.83735C23.0133 4.22696 23.1199 4.69744 23.1199 5.24878V8.83251H21.8739V5.43624C21.8739 4.89225 21.7379 4.47691 21.4659 4.19021C21.1939 3.89616 20.8226 3.74913 20.3522 3.74913C19.8817 3.74913 19.5068 3.89616 19.2274 4.19021C18.9554 4.47691 18.8194 4.89225 18.8194 5.43624V8.83251H17.5624V2.75672H18.8194V3.45141C19.0253 3.20147 19.2862 3.00666 19.6023 2.86699C19.9258 2.72731 20.2676 2.65748 20.6278 2.65748ZM25.3878 1.95176C25.1599 1.95176 24.9687 1.87457 24.8144 1.72019C24.66 1.56582 24.5828 1.37469 24.5828 1.1468C24.5828 0.918908 24.66 0.727776 24.8144 0.573401C24.9687 0.419025 25.1599 0.341837 25.3878 0.341837C25.6083 0.341837 25.7958 0.419025 25.9501 0.573401C26.1045 0.727776 26.1817 0.918908 26.1817 1.1468C26.1817 1.37469 26.1045 1.56582 25.9501 1.72019C25.7958 1.87457 25.6083 1.95176 25.3878 1.95176ZM26.0053 2.75672V8.83251H24.7482V2.75672H26.0053ZM30.746 2.65748C31.2238 2.65748 31.6502 2.75672 32.0251 2.9552C32.4073 3.15368 32.7051 3.44773 32.9183 3.83735C33.1314 4.22696 33.238 4.69744 33.238 5.24878V8.83251H31.992V5.43624C31.992 4.89225 31.856 4.47691 31.584 4.19021C31.312 3.89616 30.9408 3.74913 30.4703 3.74913C29.9998 3.74913 29.6249 3.89616 29.3456 4.19021C29.0736 4.47691 28.9376 4.89225 28.9376 5.43624V8.83251H27.6805V2.75672H28.9376V3.45141C29.1434 3.20147 29.4044 3.00666 29.7205 2.86699C30.0439 2.72731 30.3858 2.65748 30.746 2.65748ZM37.3143 2.65748C37.7848 2.65748 38.2001 2.75304 38.5603 2.94417C38.9279 3.12795 39.2146 3.35952 39.4204 3.63886V2.75672H40.6885V8.93175C40.6885 9.49045 40.5709 9.98665 40.3356 10.4204C40.1004 10.8615 39.7586 11.207 39.3101 11.4569C38.8691 11.7068 38.3398 11.8318 37.7223 11.8318C36.8989 11.8318 36.2153 11.637 35.6713 11.2474C35.1273 10.8651 34.8185 10.3432 34.745 9.68158H35.9911C36.0866 9.99768 36.2888 10.2513 36.5975 10.4424C36.9136 10.6409 37.2886 10.7402 37.7223 10.7402C38.2295 10.7402 38.6375 10.5858 38.9463 10.277C39.2624 9.96828 39.4204 9.51985 39.4204 8.93175V7.91728C39.2072 8.20398 38.9169 8.44657 38.5493 8.64505C38.1891 8.83619 37.7774 8.93175 37.3143 8.93175C36.785 8.93175 36.2998 8.79943 35.8587 8.53479C35.425 8.26279 35.0795 7.88788 34.8222 7.41005C34.5723 6.92487 34.4473 6.3772 34.4473 5.76705C34.4473 5.15689 34.5723 4.61658 34.8222 4.1461C35.0795 3.67562 35.425 3.31173 35.8587 3.05444C36.2998 2.7898 36.785 2.65748 37.3143 2.65748ZM39.4204 5.7891C39.4204 5.37008 39.3322 5.00619 39.1558 4.69744C38.9867 4.38869 38.7625 4.15345 38.4831 3.99172C38.2038 3.83 37.9024 3.74913 37.5789 3.74913C37.2555 3.74913 36.9541 3.83 36.6747 3.99172C36.3954 4.1461 36.1675 4.37766 35.9911 4.68642C35.822 4.98782 35.7374 5.34803 35.7374 5.76705C35.7374 6.18607 35.822 6.55363 35.9911 6.86973C36.1675 7.18583 36.3954 7.42843 36.6747 7.5975C36.9614 7.75923 37.2628 7.84009 37.5789 7.84009C37.9024 7.84009 38.2038 7.75923 38.4831 7.5975C38.7625 7.43578 38.9867 7.20054 39.1558 6.89179C39.3322 6.57568 39.4204 6.20812 39.4204 5.7891ZM48.7492 8.9097C48.0361 8.9097 47.3782 8.7443 46.7754 8.41349C46.1799 8.07533 45.7058 7.60853 45.3529 7.01308C45.0074 6.41028 44.8346 5.73397 44.8346 4.98414C44.8346 4.23431 45.0074 3.56168 45.3529 2.96623C45.7058 2.37078 46.1799 1.90765 46.7754 1.57684C47.3782 1.23869 48.0361 1.06961 48.7492 1.06961C49.4696 1.06961 50.1275 1.23869 50.723 1.57684C51.3258 1.90765 51.7999 2.37078 52.1454 2.96623C52.4909 3.56168 52.6637 4.23431 52.6637 4.98414C52.6637 5.73397 52.4909 6.41028 52.1454 7.01308C51.7999 7.60853 51.3258 8.07533 50.723 8.41349C50.1275 8.7443 49.4696 8.9097 48.7492 8.9097ZM48.7492 7.81804C49.2564 7.81804 49.7085 7.7041 50.1055 7.47621C50.5024 7.24097 50.8112 6.91016 51.0317 6.48379C51.2596 6.05007 51.3736 5.55019 51.3736 4.98414C51.3736 4.4181 51.2596 3.92189 51.0317 3.49552C50.8112 3.06914 50.5024 2.74201 50.1055 2.51413C49.7085 2.28624 49.2564 2.17229 48.7492 2.17229C48.2419 2.17229 47.7898 2.28624 47.3929 2.51413C46.9959 2.74201 46.6835 3.06914 46.4556 3.49552C46.235 3.92189 46.1248 4.4181 46.1248 4.98414C46.1248 5.55019 46.235 6.05007 46.4556 6.48379C46.6835 6.91016 46.9959 7.24097 47.3929 7.47621C47.7898 7.7041 48.2419 7.81804 48.7492 7.81804ZM55.1826 3.64989C55.3958 3.37054 55.6861 3.13531 56.0537 2.94417C56.4213 2.75304 56.8366 2.65748 57.2997 2.65748C57.829 2.65748 58.3105 2.7898 58.7443 3.05444C59.1853 3.31173 59.5308 3.67562 59.7808 4.1461C60.0307 4.61658 60.1557 5.15689 60.1557 5.76705C60.1557 6.3772 60.0307 6.92487 59.7808 7.41005C59.5308 7.88788 59.1853 8.26279 58.7443 8.53479C58.3105 8.79943 57.829 8.93175 57.2997 8.93175C56.8366 8.93175 56.4249 8.83986 56.0647 8.65608C55.7045 8.46495 55.4105 8.22971 55.1826 7.95036V11.7215H53.9255V2.75672H55.1826V3.64989ZM58.8766 5.76705C58.8766 5.34803 58.7884 4.98782 58.6119 4.68642C58.4429 4.37766 58.215 4.1461 57.9283 3.99172C57.6489 3.83 57.3475 3.74913 57.0241 3.74913C56.708 3.74913 56.4066 3.83 56.1199 3.99172C55.8405 4.15345 55.6126 4.38869 55.4362 4.69744C55.2671 5.00619 55.1826 5.37008 55.1826 5.7891C55.1826 6.20812 55.2671 6.57568 55.4362 6.89179C55.6126 7.20054 55.8405 7.43578 56.1199 7.5975C56.4066 7.75923 56.708 7.84009 57.0241 7.84009C57.3475 7.84009 57.6489 7.75923 57.9283 7.5975C58.215 7.42843 58.4429 7.18583 58.6119 6.86973C58.7884 6.55363 58.8766 6.18607 58.8766 5.76705ZM62.6807 3.64989C62.8939 3.37054 63.1842 3.13531 63.5518 2.94417C63.9194 2.75304 64.3347 2.65748 64.7978 2.65748C65.3271 2.65748 65.8086 2.7898 66.2424 3.05444C66.6834 3.31173 67.0289 3.67562 67.2789 4.1461C67.5288 4.61658 67.6538 5.15689 67.6538 5.76705C67.6538 6.3772 67.5288 6.92487 67.2789 7.41005C67.0289 7.88788 66.6834 8.26279 66.2424 8.53479C65.8086 8.79943 65.3271 8.93175 64.7978 8.93175C64.3347 8.93175 63.923 8.83986 63.5628 8.65608C63.2026 8.46495 62.9086 8.22971 62.6807 7.95036V11.7215H61.4236V2.75672H62.6807V3.64989ZM66.3747 5.76705C66.3747 5.34803 66.2865 4.98782 66.11 4.68642C65.941 4.37766 65.7131 4.1461 65.4264 3.99172C65.147 3.83 64.8456 3.74913 64.5222 3.74913C64.2061 3.74913 63.9047 3.83 63.618 3.99172C63.3386 4.15345 63.1107 4.38869 62.9343 4.69744C62.7652 5.00619 62.6807 5.37008 62.6807 5.7891C62.6807 6.20812 62.7652 6.57568 62.9343 6.89179C63.1107 7.20054 63.3386 7.43578 63.618 7.5975C63.9047 7.75923 64.2061 7.84009 64.5222 7.84009C64.8456 7.84009 65.147 7.75923 65.4264 7.5975C65.7131 7.42843 65.941 7.18583 66.11 6.86973C66.2865 6.55363 66.3747 6.18607 66.3747 5.76705ZM71.5572 8.93175C70.9838 8.93175 70.4655 8.80311 70.0024 8.54581C69.5392 8.28117 69.1754 7.91361 68.9107 7.44313C68.6461 6.9653 68.5137 6.41396 68.5137 5.7891C68.5137 5.1716 68.6497 4.62393 68.9217 4.1461C69.1937 3.66827 69.565 3.30071 70.0354 3.04341C70.5059 2.78612 71.0315 2.65748 71.6123 2.65748C72.193 2.65748 72.7186 2.78612 73.1891 3.04341C73.6596 3.30071 74.0308 3.66827 74.3028 4.1461C74.5748 4.62393 74.7108 5.1716 74.7108 5.7891C74.7108 6.4066 74.5712 6.95427 74.2918 7.4321C74.0125 7.90993 73.6302 8.28117 73.145 8.54581C72.6672 8.80311 72.1379 8.93175 71.5572 8.93175ZM71.5572 7.84009C71.8806 7.84009 72.182 7.76291 72.4614 7.60853C72.7481 7.45415 72.9796 7.22259 73.156 6.91384C73.3325 6.60509 73.4207 6.23017 73.4207 5.7891C73.4207 5.34803 73.3362 4.97679 73.1671 4.67539C72.998 4.36664 72.7738 4.13507 72.4944 3.9807C72.2151 3.82632 71.9137 3.74913 71.5902 3.74913C71.2668 3.74913 70.9654 3.82632 70.686 3.9807C70.414 4.13507 70.1972 4.36664 70.0354 4.67539C69.8737 4.97679 69.7929 5.34803 69.7929 5.7891C69.7929 6.44336 69.9583 6.9506 70.2891 7.31081C70.6272 7.66366 71.0499 7.84009 71.5572 7.84009ZM77.2354 3.63886C77.4192 3.33011 77.6618 3.0912 77.9632 2.92212C78.2719 2.74569 78.6358 2.65748 79.0548 2.65748V3.95864H78.7351C78.2425 3.95864 77.8676 4.08361 77.6103 4.33356C77.3604 4.5835 77.2354 5.01722 77.2354 5.63472V8.83251H75.9783V2.75672H77.2354V3.63886ZM81.7017 3.78221V7.1454C81.7017 7.37329 81.7532 7.53869 81.8561 7.64161C81.9664 7.73718 82.1502 7.78496 82.4074 7.78496H83.1793V8.83251H82.1869C81.6209 8.83251 81.1871 8.70019 80.8857 8.43554C80.5843 8.1709 80.4336 7.74085 80.4336 7.1454V3.78221H79.7169V2.75672H80.4336V1.24604H81.7017V2.75672H83.1793V3.78221H81.7017ZM89.8651 2.75672V8.83251H88.6081V8.11577C88.4096 8.36571 88.1486 8.56419 87.8252 8.71122C87.5091 8.85089 87.1709 8.92073 86.8107 8.92073C86.3329 8.92073 85.9028 8.82148 85.5206 8.623C85.1457 8.42452 84.8479 8.13047 84.6274 7.74085C84.4142 7.35124 84.3076 6.88076 84.3076 6.32942V2.75672H85.5536V6.14196C85.5536 6.68595 85.6896 7.10497 85.9616 7.39902C86.2336 7.68572 86.6049 7.82907 87.0754 7.82907C87.5458 7.82907 87.9171 7.68572 88.1891 7.39902C88.4684 7.10497 88.6081 6.68595 88.6081 6.14196V2.75672H89.8651ZM94.614 2.65748C95.0919 2.65748 95.5182 2.75672 95.8931 2.9552C96.2754 3.15368 96.5731 3.44773 96.7863 3.83735C96.9995 4.22696 97.1061 4.69744 97.1061 5.24878V8.83251H95.8601V5.43624C95.8601 4.89225 95.7241 4.47691 95.4521 4.19021C95.1801 3.89616 94.8088 3.74913 94.3384 3.74913C93.8679 3.74913 93.493 3.89616 93.2136 4.19021C92.9416 4.47691 92.8056 4.89225 92.8056 5.43624V8.83251H91.5486V2.75672H92.8056V3.45141C93.0115 3.20147 93.2724 3.00666 93.5885 2.86699C93.912 2.72731 94.2538 2.65748 94.614 2.65748ZM99.374 1.95176C99.1461 1.95176 98.9549 1.87457 98.8006 1.72019C98.6462 1.56582 98.569 1.37469 98.569 1.1468C98.569 0.918908 98.6462 0.727776 98.8006 0.573401C98.9549 0.419025 99.1461 0.341837 99.374 0.341837C99.5945 0.341837 99.7819 0.419025 99.9363 0.573401C100.091 0.727776 100.168 0.918908 100.168 1.1468C100.168 1.37469 100.091 1.56582 99.9363 1.72019C99.7819 1.87457 99.5945 1.95176 99.374 1.95176ZM99.9915 2.75672V8.83251H98.7344V2.75672H99.9915ZM103.133 3.78221V7.1454C103.133 7.37329 103.185 7.53869 103.288 7.64161C103.398 7.73718 103.582 7.78496 103.839 7.78496H104.611V8.83251H103.618C103.052 8.83251 102.619 8.70019 102.317 8.43554C102.016 8.1709 101.865 7.74085 101.865 7.1454V3.78221H101.148V2.75672H101.865V1.24604H103.133V2.75672H104.611V3.78221H103.133ZM111.264 2.75672L107.537 11.6885H106.235L107.47 8.73327L105.078 2.75672H106.478L108.187 7.38799L109.962 2.75672H111.264ZM112.744 8.9097C112.516 8.9097 112.325 8.83251 112.171 8.67814C112.017 8.52376 111.939 8.33263 111.939 8.10474C111.939 7.87685 112.017 7.68572 112.171 7.53134C112.325 7.37697 112.516 7.29978 112.744 7.29978C112.965 7.29978 113.152 7.37697 113.307 7.53134C113.461 7.68572 113.538 7.87685 113.538 8.10474C113.538 8.33263 113.461 8.52376 113.307 8.67814C113.152 8.83251 112.965 8.9097 112.744 8.9097ZM112.744 4.27842C112.516 4.27842 112.325 4.20123 112.171 4.04686C112.017 3.89248 111.939 3.70135 111.939 3.47346C111.939 3.24557 112.017 3.05444 112.171 2.90007C112.325 2.74569 112.516 2.6685 112.744 2.6685C112.965 2.6685 113.152 2.74569 113.307 2.90007C113.461 3.05444 113.538 3.24557 113.538 3.47346C113.538 3.70135 113.461 3.89248 113.307 4.04686C113.152 4.20123 112.965 4.27842 112.744 4.27842ZM121.835 8.83251L120.07 5.76705H119.111V8.83251H117.854V1.16885H120.5C121.089 1.16885 121.585 1.27177 121.989 1.4776C122.401 1.68344 122.706 1.95911 122.904 2.30462C123.11 2.65012 123.213 3.03606 123.213 3.46244C123.213 3.96232 123.066 4.4181 122.772 4.82976C122.485 5.23408 122.041 5.50975 121.438 5.65678L123.334 8.83251H121.835ZM119.111 4.7636H120.5C120.971 4.7636 121.324 4.64598 121.559 4.41074C121.802 4.1755 121.923 3.8594 121.923 3.46244C121.923 3.06547 121.805 2.75672 121.57 2.53618C121.335 2.30829 120.978 2.19435 120.5 2.19435H119.111V4.7636ZM127.051 8.93175C126.574 8.93175 126.144 8.84721 125.761 8.67814C125.386 8.50171 125.089 8.26647 124.868 7.97242C124.648 7.67102 124.53 7.33654 124.515 6.96897H125.816C125.838 7.22627 125.96 7.44313 126.18 7.61956C126.408 7.78864 126.691 7.87318 127.029 7.87318C127.382 7.87318 127.654 7.80701 127.845 7.67469C128.044 7.53502 128.143 7.35859 128.143 7.1454C128.143 6.91751 128.033 6.74844 127.812 6.63817C127.599 6.5279 127.257 6.4066 126.787 6.27428C126.331 6.14931 125.96 6.02802 125.673 5.9104C125.386 5.79278 125.136 5.61267 124.923 5.37008C124.717 5.12749 124.614 4.80771 124.614 4.41074C124.614 4.08729 124.71 3.79324 124.901 3.5286C125.092 3.2566 125.364 3.04341 125.717 2.88904C126.077 2.73466 126.489 2.65748 126.952 2.65748C127.643 2.65748 128.198 2.8339 128.617 3.18676C129.044 3.53227 129.271 4.00643 129.301 4.60923H128.044C128.022 4.33723 127.911 4.12037 127.713 3.95864C127.515 3.79692 127.246 3.71605 126.908 3.71605C126.577 3.71605 126.324 3.77854 126.147 3.90351C125.971 4.02848 125.883 4.19388 125.883 4.39972C125.883 4.56144 125.941 4.69744 126.059 4.80771C126.177 4.91798 126.32 5.00619 126.489 5.07236C126.658 5.13117 126.908 5.20835 127.239 5.30392C127.68 5.42154 128.04 5.54283 128.319 5.66781C128.606 5.78542 128.852 5.96185 129.058 6.19709C129.264 6.43233 129.371 6.74476 129.378 7.13438C129.378 7.47988 129.282 7.78864 129.091 8.06063C128.9 8.33263 128.628 8.54581 128.275 8.70019C127.93 8.85456 127.522 8.93175 127.051 8.93175ZM131.268 8.9097C131.041 8.9097 130.849 8.83251 130.695 8.67814C130.541 8.52376 130.463 8.33263 130.463 8.10474C130.463 7.87685 130.541 7.68572 130.695 7.53134C130.849 7.37697 131.041 7.29978 131.268 7.29978C131.489 7.29978 131.676 7.37697 131.831 7.53134C131.985 7.68572 132.062 7.87685 132.062 8.10474C132.062 8.33263 131.985 8.52376 131.831 8.67814C131.676 8.83251 131.489 8.9097 131.268 8.9097ZM141.352 1.87457H137.658V4.06891C137.813 3.86308 138.041 3.69032 138.342 3.55065C138.651 3.41098 138.978 3.34114 139.323 3.34114C139.941 3.34114 140.441 3.47346 140.823 3.73811C141.213 4.00275 141.488 4.33723 141.65 4.74155C141.819 5.14587 141.904 5.57224 141.904 6.02066C141.904 6.56466 141.797 7.04984 141.584 7.47621C141.378 7.89523 141.066 8.22603 140.647 8.46863C140.235 8.71122 139.728 8.83251 139.125 8.83251C138.324 8.83251 137.68 8.63403 137.195 8.23706C136.71 7.84009 136.42 7.31448 136.324 6.66022H137.548C137.629 7.00573 137.809 7.2814 138.088 7.48724C138.368 7.68572 138.717 7.78496 139.136 7.78496C139.658 7.78496 140.047 7.62691 140.305 7.31081C140.569 6.9947 140.702 6.57568 140.702 6.05374C140.702 5.52446 140.569 5.12014 140.305 4.84079C140.04 4.55409 139.65 4.41074 139.136 4.41074C138.776 4.41074 138.471 4.50263 138.221 4.68642C137.978 4.86284 137.802 5.10544 137.691 5.41419H136.5V0.771884H141.352V1.87457ZM144.781 7.32183L143.447 10.3652H142.631L143.413 7.32183H144.781ZM150.921 1.87457H147.227V4.06891C147.382 3.86308 147.609 3.69032 147.911 3.55065C148.22 3.41098 148.547 3.34114 148.892 3.34114C149.51 3.34114 150.01 3.47346 150.392 3.73811C150.782 4.00275 151.057 4.33723 151.219 4.74155C151.388 5.14587 151.473 5.57224 151.473 6.02066C151.473 6.56466 151.366 7.04984 151.153 7.47621C150.947 7.89523 150.634 8.22603 150.215 8.46863C149.804 8.71122 149.297 8.83251 148.694 8.83251C147.892 8.83251 147.249 8.63403 146.764 8.23706C146.279 7.84009 145.988 7.31448 145.893 6.66022H147.117C147.198 7.00573 147.378 7.2814 147.657 7.48724C147.937 7.68572 148.286 7.78496 148.705 7.78496C149.227 7.78496 149.616 7.62691 149.874 7.31081C150.138 6.9947 150.271 6.57568 150.271 6.05374C150.271 5.52446 150.138 5.12014 149.874 4.84079C149.609 4.55409 149.219 4.41074 148.705 4.41074C148.345 4.41074 148.039 4.50263 147.79 4.68642C147.547 4.86284 147.371 5.10544 147.26 5.41419H146.069V0.771884H150.921V1.87457ZM152.784 2.77877C152.828 2.09511 153.089 1.56214 153.567 1.17988C154.052 0.797613 154.669 0.606481 155.419 0.606481C155.934 0.606481 156.379 0.698371 156.754 0.882152C157.128 1.06593 157.411 1.31587 157.603 1.63198C157.794 1.94808 157.889 2.30462 157.889 2.70158C157.889 3.15736 157.768 3.54697 157.525 3.87043C157.283 4.19388 156.992 4.41074 156.654 4.52101V4.56512C157.088 4.69744 157.426 4.94003 157.669 5.29289C157.911 5.6384 158.033 6.08315 158.033 6.62714C158.033 7.06086 157.933 7.4468 157.735 7.78496C157.536 8.12312 157.242 8.39144 156.853 8.58992C156.463 8.78105 155.996 8.87662 155.452 8.87662C154.658 8.87662 154.004 8.67446 153.49 8.27014C152.982 7.85847 152.71 7.27037 152.674 6.50585H153.887C153.916 6.89546 154.067 7.21524 154.339 7.46518C154.611 7.70777 154.978 7.82907 155.441 7.82907C155.89 7.82907 156.235 7.70777 156.478 7.46518C156.72 7.21524 156.842 6.89546 156.842 6.50585C156.842 5.99126 156.676 5.62737 156.346 5.41419C156.022 5.19365 155.522 5.08338 154.846 5.08338H154.559V4.04686H154.857C155.452 4.03951 155.904 3.94027 156.213 3.74913C156.529 3.558 156.687 3.2566 156.687 2.84493C156.687 2.49207 156.573 2.21273 156.346 2.00689C156.118 1.79371 155.794 1.68711 155.375 1.68711C154.964 1.68711 154.644 1.79371 154.416 2.00689C154.188 2.21273 154.052 2.47002 154.008 2.77877H152.784ZM159.378 4.70847C159.378 3.43671 159.591 2.44429 160.018 1.73122C160.451 1.0108 161.194 0.650588 162.245 0.650588C163.296 0.650588 164.035 1.0108 164.461 1.73122C164.895 2.44429 165.112 3.43671 165.112 4.70847C165.112 5.99493 164.895 7.00205 164.461 7.72983C164.035 8.45025 163.296 8.81046 162.245 8.81046C161.194 8.81046 160.451 8.45025 160.018 7.72983C159.591 7.00205 159.378 5.99493 159.378 4.70847ZM163.877 4.70847C163.877 4.11302 163.836 3.60946 163.756 3.19779C163.682 2.78612 163.528 2.45164 163.292 2.19435C163.057 1.9297 162.708 1.79738 162.245 1.79738C161.782 1.79738 161.433 1.9297 161.197 2.19435C160.962 2.45164 160.804 2.78612 160.723 3.19779C160.65 3.60946 160.613 4.11302 160.613 4.70847C160.613 5.32597 160.65 5.84423 160.723 6.26326C160.797 6.68228 160.951 7.02043 161.186 7.27773C161.429 7.53502 161.782 7.66366 162.245 7.66366C162.708 7.66366 163.057 7.53502 163.292 7.27773C163.535 7.02043 163.693 6.68228 163.767 6.26326C163.84 5.84423 163.877 5.32597 163.877 4.70847Z" fill="url(#paint0_linear_1_64)"/>
<path d="M173.999 10.0785H172.742V4.00326e-06H173.999V10.0785ZM184.314 8.9097C183.8 8.9097 183.337 8.82148 182.925 8.64505C182.513 8.46127 182.19 8.20398 181.955 7.87318C181.719 7.54237 181.602 7.15643 181.602 6.71536H182.947C182.976 7.04616 183.105 7.31816 183.333 7.53134C183.568 7.74453 183.895 7.85112 184.314 7.85112C184.748 7.85112 185.086 7.7482 185.329 7.54237C185.571 7.32918 185.693 7.05719 185.693 6.72638C185.693 6.46909 185.615 6.25958 185.461 6.09785C185.314 5.93613 185.127 5.81115 184.899 5.72294C184.678 5.63472 184.369 5.53916 183.972 5.43624C183.473 5.30392 183.065 5.1716 182.748 5.03927C182.44 4.8996 182.175 4.68642 181.955 4.39972C181.734 4.11302 181.624 3.73076 181.624 3.25292C181.624 2.81185 181.734 2.42591 181.955 2.09511C182.175 1.7643 182.484 1.51068 182.881 1.33425C183.278 1.15782 183.737 1.06961 184.259 1.06961C185.002 1.06961 185.608 1.25706 186.079 1.63198C186.556 1.99954 186.821 2.50677 186.872 3.15368H185.483C185.461 2.87434 185.329 2.63542 185.086 2.43694C184.844 2.23845 184.524 2.13921 184.127 2.13921C183.767 2.13921 183.473 2.2311 183.245 2.41488C183.017 2.59867 182.903 2.86331 182.903 3.20882C182.903 3.44406 182.973 3.63886 183.112 3.79324C183.259 3.94027 183.443 4.05789 183.664 4.1461C183.884 4.23431 184.186 4.32988 184.568 4.4328C185.075 4.57247 185.487 4.71214 185.803 4.85182C186.126 4.99149 186.398 5.20835 186.619 5.5024C186.847 5.7891 186.961 6.17504 186.961 6.66022C186.961 7.04984 186.854 7.4174 186.641 7.76291C186.435 8.10841 186.13 8.38776 185.726 8.60095C185.329 8.80678 184.858 8.9097 184.314 8.9097ZM191.104 8.93175C190.531 8.93175 190.013 8.80311 189.549 8.54581C189.086 8.28117 188.722 7.91361 188.458 7.44313C188.193 6.9653 188.061 6.41396 188.061 5.7891C188.061 5.1716 188.197 4.62393 188.469 4.1461C188.741 3.66827 189.112 3.30071 189.583 3.04341C190.053 2.78612 190.579 2.65748 191.159 2.65748C191.74 2.65748 192.266 2.78612 192.736 3.04341C193.207 3.30071 193.578 3.66827 193.85 4.1461C194.122 4.62393 194.258 5.1716 194.258 5.7891C194.258 6.4066 194.118 6.95427 193.839 7.4321C193.56 7.90993 193.177 8.28117 192.692 8.54581C192.214 8.80311 191.685 8.93175 191.104 8.93175ZM191.104 7.84009C191.428 7.84009 191.729 7.76291 192.008 7.60853C192.295 7.45415 192.527 7.22259 192.703 6.91384C192.88 6.60509 192.968 6.23017 192.968 5.7891C192.968 5.34803 192.883 4.97679 192.714 4.67539C192.545 4.36664 192.321 4.13507 192.042 3.9807C191.762 3.82632 191.461 3.74913 191.137 3.74913C190.814 3.74913 190.512 3.82632 190.233 3.9807C189.961 4.13507 189.744 4.36664 189.583 4.67539C189.421 4.97679 189.34 5.34803 189.34 5.7891C189.34 6.44336 189.505 6.9506 189.836 7.31081C190.174 7.66366 190.597 7.84009 191.104 7.84009ZM196.782 0.672642V8.83251H195.525V0.672642H196.782ZM198.039 5.76705C198.039 5.15689 198.164 4.61658 198.414 4.1461C198.671 3.67562 199.016 3.31173 199.45 3.05444C199.891 2.7898 200.38 2.65748 200.917 2.65748C201.314 2.65748 201.703 2.74569 202.086 2.92212C202.475 3.0912 202.784 3.31909 203.012 3.60578V0.672642H204.28V8.83251H203.012V7.91728C202.806 8.21133 202.519 8.45392 202.152 8.64505C201.792 8.83619 201.376 8.93175 200.906 8.93175C200.376 8.93175 199.891 8.79943 199.45 8.53479C199.016 8.26279 198.671 7.88788 198.414 7.41005C198.164 6.92487 198.039 6.3772 198.039 5.76705ZM203.012 5.7891C203.012 5.37008 202.924 5.00619 202.747 4.69744C202.578 4.38869 202.354 4.15345 202.075 3.99172C201.795 3.83 201.494 3.74913 201.17 3.74913C200.847 3.74913 200.545 3.83 200.266 3.99172C199.987 4.1461 199.759 4.37766 199.582 4.68642C199.413 4.98782 199.329 5.34803 199.329 5.76705C199.329 6.18607 199.413 6.55363 199.582 6.86973C199.759 7.18583 199.987 7.42843 200.266 7.5975C200.553 7.75923 200.854 7.84009 201.17 7.84009C201.494 7.84009 201.795 7.75923 202.075 7.5975C202.354 7.43578 202.578 7.20054 202.747 6.89179C202.924 6.57568 203.012 6.20812 203.012 5.7891ZM206.463 8.9097C206.235 8.9097 206.044 8.83251 205.89 8.67814C205.735 8.52376 205.658 8.33263 205.658 8.10474C205.658 7.87685 205.735 7.68572 205.89 7.53134C206.044 7.37697 206.235 7.29978 206.463 7.29978C206.684 7.29978 206.871 7.37697 207.025 7.53134C207.18 7.68572 207.257 7.87685 207.257 8.10474C207.257 8.33263 207.18 8.52376 207.025 8.67814C206.871 8.83251 206.684 8.9097 206.463 8.9097ZM206.463 4.27842C206.235 4.27842 206.044 4.20123 205.89 4.04686C205.735 3.89248 205.658 3.70135 205.658 3.47346C205.658 3.24557 205.735 3.05444 205.89 2.90007C206.044 2.74569 206.235 2.6685 206.463 2.6685C206.684 2.6685 206.871 2.74569 207.025 2.90007C207.18 3.05444 207.257 3.24557 207.257 3.47346C207.257 3.70135 207.18 3.89248 207.025 4.04686C206.871 4.20123 206.684 4.27842 206.463 4.27842ZM216.59 1.87457H212.896V4.06891C213.05 3.86308 213.278 3.69032 213.58 3.55065C213.888 3.41098 214.216 3.34114 214.561 3.34114C215.179 3.34114 215.678 3.47346 216.061 3.73811C216.45 4.00275 216.726 4.33723 216.888 4.74155C217.057 5.14587 217.141 5.57224 217.141 6.02066C217.141 6.56466 217.035 7.04984 216.822 7.47621C216.616 7.89523 216.303 8.22603 215.884 8.46863C215.473 8.71122 214.965 8.83251 214.363 8.83251C213.561 8.83251 212.918 8.63403 212.433 8.23706C211.948 7.84009 211.657 7.31448 211.562 6.66022H212.786C212.867 7.00573 213.047 7.2814 213.326 7.48724C213.605 7.68572 213.955 7.78496 214.374 7.78496C214.896 7.78496 215.285 7.62691 215.542 7.31081C215.807 6.9947 215.939 6.57568 215.939 6.05374C215.939 5.52446 215.807 5.12014 215.542 4.84079C215.278 4.55409 214.888 4.41074 214.374 4.41074C214.013 4.41074 213.708 4.50263 213.458 4.68642C213.216 4.86284 213.039 5.10544 212.929 5.41419H211.738V0.771884H216.59V1.87457ZM224.055 8.9097C223.54 8.9097 223.077 8.82148 222.665 8.64505C222.253 8.46127 221.93 8.20398 221.695 7.87318C221.46 7.54237 221.342 7.15643 221.342 6.71536H222.687C222.717 7.04616 222.845 7.31816 223.073 7.53134C223.308 7.74453 223.635 7.85112 224.055 7.85112C224.488 7.85112 224.826 7.7482 225.069 7.54237C225.312 7.32918 225.433 7.05719 225.433 6.72638C225.433 6.46909 225.356 6.25958 225.201 6.09785C225.054 5.93613 224.867 5.81115 224.639 5.72294C224.418 5.63472 224.11 5.53916 223.713 5.43624C223.213 5.30392 222.805 5.1716 222.489 5.03927C222.18 4.8996 221.915 4.68642 221.695 4.39972C221.474 4.11302 221.364 3.73076 221.364 3.25292C221.364 2.81185 221.474 2.42591 221.695 2.09511C221.915 1.7643 222.224 1.51068 222.621 1.33425C223.018 1.15782 223.477 1.06961 223.999 1.06961C224.742 1.06961 225.348 1.25706 225.819 1.63198C226.297 1.99954 226.561 2.50677 226.613 3.15368H225.223C225.201 2.87434 225.069 2.63542 224.826 2.43694C224.584 2.23845 224.264 2.13921 223.867 2.13921C223.507 2.13921 223.213 2.2311 222.985 2.41488C222.757 2.59867 222.643 2.86331 222.643 3.20882C222.643 3.44406 222.713 3.63886 222.853 3.79324C223 3.94027 223.183 4.05789 223.404 4.1461C223.624 4.23431 223.926 4.32988 224.308 4.4328C224.815 4.57247 225.227 4.71214 225.543 4.85182C225.867 4.99149 226.139 5.20835 226.359 5.5024C226.587 5.7891 226.701 6.17504 226.701 6.66022C226.701 7.04984 226.594 7.4174 226.381 7.76291C226.175 8.10841 225.87 8.38776 225.466 8.60095C225.069 8.80678 224.598 8.9097 224.055 8.9097ZM233.778 5.64575C233.778 5.87364 233.763 6.07947 233.734 6.26326H229.091C229.128 6.74844 229.308 7.13805 229.632 7.4321C229.955 7.72615 230.352 7.87318 230.822 7.87318C231.499 7.87318 231.977 7.59015 232.256 7.02411H233.612C233.428 7.5828 233.094 8.04225 232.609 8.40246C232.131 8.75532 231.536 8.93175 230.822 8.93175C230.242 8.93175 229.72 8.80311 229.257 8.54581C228.801 8.28117 228.441 7.91361 228.176 7.44313C227.919 6.9653 227.79 6.41396 227.79 5.7891C227.79 5.16425 227.915 4.61658 228.165 4.1461C228.422 3.66827 228.779 3.30071 229.235 3.04341C229.698 2.78612 230.227 2.65748 230.822 2.65748C231.396 2.65748 231.907 2.78245 232.355 3.03239C232.804 3.28233 233.153 3.63519 233.403 4.09097C233.653 4.53939 233.778 5.05765 233.778 5.64575ZM232.465 5.24878C232.458 4.78566 232.293 4.41442 231.969 4.13507C231.646 3.85573 231.245 3.71605 230.767 3.71605C230.334 3.71605 229.962 3.85573 229.654 4.13507C229.345 4.40707 229.161 4.77831 229.102 5.24878H232.465ZM236.297 3.63886C236.48 3.33011 236.723 3.0912 237.024 2.92212C237.333 2.74569 237.697 2.65748 238.116 2.65748V3.95864H237.796C237.304 3.95864 236.929 4.08361 236.672 4.33356C236.422 4.5835 236.297 5.01722 236.297 5.63472V8.83251H235.04V2.75672H236.297V3.63886ZM241.645 7.70777L243.365 2.75672H244.7L242.384 8.83251H240.884L238.58 2.75672H239.925L241.645 7.70777ZM246.314 1.95176C246.086 1.95176 245.895 1.87457 245.741 1.72019C245.586 1.56582 245.509 1.37469 245.509 1.1468C245.509 0.918908 245.586 0.727776 245.741 0.573401C245.895 0.419025 246.086 0.341837 246.314 0.341837C246.535 0.341837 246.722 0.419025 246.876 0.573401C247.031 0.727776 247.108 0.918908 247.108 1.1468C247.108 1.37469 247.031 1.56582 246.876 1.72019C246.722 1.87457 246.535 1.95176 246.314 1.95176ZM246.932 2.75672V8.83251H245.675V2.75672H246.932ZM248.188 5.7891C248.188 5.16425 248.313 4.61658 248.563 4.1461C248.82 3.66827 249.173 3.30071 249.621 3.04341C250.07 2.78612 250.584 2.65748 251.165 2.65748C251.9 2.65748 252.507 2.8339 252.984 3.18676C253.47 3.53227 253.797 4.02848 253.966 4.67539H252.61C252.499 4.37399 252.323 4.13875 252.08 3.96967C251.838 3.80059 251.533 3.71605 251.165 3.71605C250.65 3.71605 250.239 3.89983 249.93 4.2674C249.629 4.62761 249.478 5.13484 249.478 5.7891C249.478 6.44336 249.629 6.95427 249.93 7.32183C250.239 7.68939 250.65 7.87318 251.165 7.87318C251.893 7.87318 252.374 7.5534 252.61 6.91384H253.966C253.789 7.53134 253.459 8.02388 252.973 8.39144C252.488 8.75165 251.885 8.93175 251.165 8.93175C250.584 8.93175 250.07 8.80311 249.621 8.54581C249.173 8.28117 248.82 7.91361 248.563 7.44313C248.313 6.9653 248.188 6.41396 248.188 5.7891ZM260.812 5.64575C260.812 5.87364 260.797 6.07947 260.768 6.26326H256.126C256.162 6.74844 256.342 7.13805 256.666 7.4321C256.989 7.72615 257.386 7.87318 257.857 7.87318C258.533 7.87318 259.011 7.59015 259.29 7.02411H260.647C260.463 7.5828 260.128 8.04225 259.643 8.40246C259.165 8.75532 258.57 8.93175 257.857 8.93175C257.276 8.93175 256.754 8.80311 256.291 8.54581C255.835 8.28117 255.475 7.91361 255.21 7.44313C254.953 6.9653 254.824 6.41396 254.824 5.7891C254.824 5.16425 254.949 4.61658 255.199 4.1461C255.457 3.66827 255.813 3.30071 256.269 3.04341C256.732 2.78612 257.261 2.65748 257.857 2.65748C258.43 2.65748 258.941 2.78245 259.39 3.03239C259.838 3.28233 260.187 3.63519 260.437 4.09097C260.687 4.53939 260.812 5.05765 260.812 5.64575ZM259.5 5.24878C259.492 4.78566 259.327 4.41442 259.004 4.13507C258.68 3.85573 258.28 3.71605 257.802 3.71605C257.368 3.71605 256.997 3.85573 256.688 4.13507C256.379 4.40707 256.195 4.77831 256.137 5.24878H259.5ZM264.279 8.93175C263.801 8.93175 263.371 8.84721 262.989 8.67814C262.614 8.50171 262.317 8.26647 262.096 7.97242C261.875 7.67102 261.758 7.33654 261.743 6.96897H263.044C263.066 7.22627 263.188 7.44313 263.408 7.61956C263.636 7.78864 263.919 7.87318 264.257 7.87318C264.61 7.87318 264.882 7.80701 265.073 7.67469C265.272 7.53502 265.371 7.35859 265.371 7.1454C265.371 6.91751 265.261 6.74844 265.04 6.63817C264.827 6.5279 264.485 6.4066 264.015 6.27428C263.559 6.14931 263.188 6.02802 262.901 5.9104C262.614 5.79278 262.364 5.61267 262.151 5.37008C261.945 5.12749 261.842 4.80771 261.842 4.41074C261.842 4.08729 261.938 3.79324 262.129 3.5286C262.32 3.2566 262.592 3.04341 262.945 2.88904C263.305 2.73466 263.717 2.65748 264.18 2.65748C264.871 2.65748 265.426 2.8339 265.845 3.18676C266.271 3.53227 266.499 4.00643 266.529 4.60923H265.272C265.25 4.33723 265.139 4.12037 264.941 3.95864C264.742 3.79692 264.474 3.71605 264.136 3.71605C263.805 3.71605 263.552 3.77854 263.375 3.90351C263.199 4.02848 263.11 4.19388 263.11 4.39972C263.11 4.56144 263.169 4.69744 263.287 4.80771C263.405 4.91798 263.548 5.00619 263.717 5.07236C263.886 5.13117 264.136 5.20835 264.467 5.30392C264.908 5.42154 265.268 5.54283 265.547 5.66781C265.834 5.78542 266.08 5.96185 266.286 6.19709C266.492 6.43233 266.599 6.74476 266.606 7.13438C266.606 7.47988 266.51 7.78864 266.319 8.06063C266.128 8.33263 265.856 8.54581 265.503 8.70019C265.158 8.85456 264.75 8.93175 264.279 8.93175ZM273.084 8.93175C272.606 8.93175 272.176 8.84721 271.794 8.67814C271.419 8.50171 271.121 8.26647 270.9 7.97242C270.68 7.67102 270.562 7.33654 270.548 6.96897H271.849C271.871 7.22627 271.992 7.44313 272.213 7.61956C272.44 7.78864 272.723 7.87318 273.062 7.87318C273.415 7.87318 273.687 7.80701 273.878 7.67469C274.076 7.53502 274.175 7.35859 274.175 7.1454C274.175 6.91751 274.065 6.74844 273.845 6.63817C273.631 6.5279 273.29 6.4066 272.819 6.27428C272.363 6.14931 271.992 6.02802 271.705 5.9104C271.419 5.79278 271.169 5.61267 270.956 5.37008C270.75 5.12749 270.647 4.80771 270.647 4.41074C270.647 4.08729 270.742 3.79324 270.933 3.5286C271.125 3.2566 271.397 3.04341 271.749 2.88904C272.11 2.73466 272.521 2.65748 272.984 2.65748C273.675 2.65748 274.23 2.8339 274.65 3.18676C275.076 3.53227 275.304 4.00643 275.333 4.60923H274.076C274.054 4.33723 273.944 4.12037 273.745 3.95864C273.547 3.79692 273.279 3.71605 272.94 3.71605C272.61 3.71605 272.356 3.77854 272.18 3.90351C272.003 4.02848 271.915 4.19388 271.915 4.39972C271.915 4.56144 271.974 4.69744 272.091 4.80771C272.209 4.91798 272.352 5.00619 272.521 5.07236C272.69 5.13117 272.94 5.20835 273.271 5.30392C273.712 5.42154 274.072 5.54283 274.352 5.66781C274.638 5.78542 274.885 5.96185 275.091 6.19709C275.296 6.43233 275.403 6.74476 275.41 7.13438C275.41 7.47988 275.315 7.78864 275.124 8.06063C274.933 8.33263 274.661 8.54581 274.308 8.70019C273.962 8.85456 273.554 8.93175 273.084 8.93175ZM279.429 8.93175C278.855 8.93175 278.337 8.80311 277.874 8.54581C277.411 8.28117 277.047 7.91361 276.782 7.44313C276.518 6.9653 276.385 6.41396 276.385 5.7891C276.385 5.1716 276.521 4.62393 276.793 4.1461C277.065 3.66827 277.437 3.30071 277.907 3.04341C278.378 2.78612 278.903 2.65748 279.484 2.65748C280.065 2.65748 280.59 2.78612 281.061 3.04341C281.531 3.30071 281.903 3.66827 282.175 4.1461C282.447 4.62393 282.583 5.1716 282.583 5.7891C282.583 6.4066 282.443 6.95427 282.164 7.4321C281.884 7.90993 281.502 8.28117 281.017 8.54581C280.539 8.80311 280.01 8.93175 279.429 8.93175ZM279.429 7.84009C279.752 7.84009 280.054 7.76291 280.333 7.60853C280.62 7.45415 280.851 7.22259 281.028 6.91384C281.204 6.60509 281.292 6.23017 281.292 5.7891C281.292 5.34803 281.208 4.97679 281.039 4.67539C280.87 4.36664 280.646 4.13507 280.366 3.9807C280.087 3.82632 279.785 3.74913 279.462 3.74913C279.139 3.74913 278.837 3.82632 278.558 3.9807C278.286 4.13507 278.069 4.36664 277.907 4.67539C277.745 4.97679 277.665 5.34803 277.665 5.7891C277.665 6.44336 277.83 6.9506 278.161 7.31081C278.499 7.66366 278.922 7.84009 279.429 7.84009ZM289.287 3.78221H288.162V8.83251H286.894V3.78221H286.177V2.75672H286.894V2.32667C286.894 1.6283 287.077 1.12107 287.445 0.804964C287.82 0.48151 288.404 0.319783 289.198 0.319783V1.36733C288.816 1.36733 288.548 1.44085 288.393 1.58787C288.239 1.72754 288.162 1.97381 288.162 2.32667V2.75672H289.287V3.78221ZM290.006 5.76705C290.006 5.15689 290.131 4.61658 290.381 4.1461C290.639 3.67562 290.984 3.31173 291.418 3.05444C291.859 2.7898 292.344 2.65748 292.873 2.65748C293.351 2.65748 293.767 2.75304 294.119 2.94417C294.48 3.12795 294.766 3.35952 294.979 3.63886V2.75672H296.248V8.83251H294.979V7.92831C294.766 8.21501 294.476 8.45392 294.108 8.64505C293.741 8.83619 293.322 8.93175 292.851 8.93175C292.329 8.93175 291.852 8.79943 291.418 8.53479C290.984 8.26279 290.639 7.88788 290.381 7.41005C290.131 6.92487 290.006 6.3772 290.006 5.76705ZM294.979 5.7891C294.979 5.37008 294.891 5.00619 294.715 4.69744C294.546 4.38869 294.322 4.15345 294.042 3.99172C293.763 3.83 293.461 3.74913 293.138 3.74913C292.815 3.74913 292.513 3.83 292.234 3.99172C291.954 4.1461 291.727 4.37766 291.55 4.68642C291.381 4.98782 291.297 5.34803 291.297 5.76705C291.297 6.18607 291.381 6.55363 291.55 6.86973C291.727 7.18583 291.954 7.42843 292.234 7.5975C292.52 7.75923 292.822 7.84009 293.138 7.84009C293.461 7.84009 293.763 7.75923 294.042 7.5975C294.322 7.43578 294.546 7.20054 294.715 6.89179C294.891 6.57568 294.979 6.20812 294.979 5.7891ZM299.181 3.63886C299.364 3.33011 299.607 3.0912 299.908 2.92212C300.217 2.74569 300.581 2.65748 301 2.65748V3.95864H300.68C300.188 3.95864 299.813 4.08361 299.555 4.33356C299.306 4.5835 299.181 5.01722 299.181 5.63472V8.83251H297.923V2.75672H299.181V3.63886Z" fill="#282828" fill-opacity="0.8"/>
<defs>
<linearGradient id="paint0_linear_1_64" x1="-0.827026" y1="4.82275" x2="95.7451" y2="18.3878" gradientUnits="userSpaceOnUse">
<stop stop-color="#C6951A"/>
<stop offset="0.5" stop-color="#FFEC9E"/>
<stop offset="1" stop-color="#C6951A"/>
</linearGradient>
</defs>
</svg>
