<svg width="301" height="12" viewBox="0 0 301 12" fill="none" xmlns="http://www.w3.org/2000/svg">
<path d="M1.25705 2.18329V4.43277H3.90349V5.45826H1.25705V7.80698H4.2343V8.83248H-1.2204e-05V1.15779H4.2343V2.18329H1.25705ZM5.38843 5.76702C5.38843 5.15686 5.51341 4.61655 5.76335 4.14607C6.02064 3.67559 6.36615 3.3117 6.79987 3.05441C7.24094 2.78977 7.72613 2.65744 8.25542 2.65744C8.73325 2.65744 9.14859 2.75301 9.50145 2.94414C9.86166 3.12792 10.1484 3.35949 10.3615 3.63883V2.75669H11.6296V8.83248H10.3615V7.92828C10.1484 8.21498 9.85798 8.45389 9.49042 8.64502C9.12286 8.83616 8.70384 8.93172 8.23336 8.93172C7.71142 8.93172 7.23359 8.7994 6.79987 8.53476C6.36615 8.26276 6.02064 7.88785 5.76335 7.41002C5.51341 6.92484 5.38843 6.37717 5.38843 5.76702ZM10.3615 5.78907C10.3615 5.37005 10.2733 5.00616 10.0969 4.69741C9.92782 4.38866 9.70361 4.15342 9.42426 3.99169C9.14491 3.82997 8.84351 3.7491 8.52006 3.7491C8.19661 3.7491 7.8952 3.82997 7.61586 3.99169C7.33651 4.14607 7.10862 4.37763 6.93219 4.68638C6.76311 4.98779 6.67858 5.348 6.67858 5.76702C6.67858 6.18604 6.76311 6.5536 6.93219 6.8697C7.10862 7.1858 7.33651 7.42839 7.61586 7.59747C7.90256 7.7592 8.20396 7.84006 8.52006 7.84006C8.84351 7.84006 9.14491 7.7592 9.42426 7.59747C9.70361 7.43575 9.92782 7.20051 10.0969 6.89175C10.2733 6.57565 10.3615 6.20809 10.3615 5.78907ZM14.5626 3.63883C14.7464 3.33008 14.989 3.09117 15.2904 2.92209C15.5991 2.74566 15.963 2.65744 16.3821 2.65744V3.95861H16.0623C15.5697 3.95861 15.1948 4.08358 14.9375 4.33353C14.6876 4.58347 14.5626 5.01719 14.5626 5.63469V8.83248H13.3056V2.75669H14.5626V3.63883ZM20.6278 2.65744C21.1057 2.65744 21.532 2.75669 21.907 2.95517C22.2892 3.15365 22.5869 3.4477 22.8001 3.83732C23.0133 4.22693 23.1199 4.69741 23.1199 5.24875V8.83248H21.8739V5.43621C21.8739 4.89222 21.7379 4.47687 21.4659 4.19018C21.1939 3.89613 20.8226 3.7491 20.3522 3.7491C19.8817 3.7491 19.5068 3.89613 19.2274 4.19018C18.9554 4.47687 18.8194 4.89222 18.8194 5.43621V8.83248H17.5624V2.75669H18.8194V3.45138C19.0253 3.20144 19.2862 3.00663 19.6023 2.86695C19.9258 2.72728 20.2676 2.65744 20.6278 2.65744ZM25.3878 1.95173C25.1599 1.95173 24.9687 1.87454 24.8144 1.72016C24.66 1.56579 24.5828 1.37465 24.5828 1.14677C24.5828 0.918878 24.66 0.727746 24.8144 0.57337C24.9687 0.418994 25.1599 0.341806 25.3878 0.341806C25.6083 0.341806 25.7958 0.418994 25.9501 0.57337C26.1045 0.727746 26.1817 0.918878 26.1817 1.14677C26.1817 1.37465 26.1045 1.56579 25.9501 1.72016C25.7958 1.87454 25.6083 1.95173 25.3878 1.95173ZM26.0053 2.75669V8.83248H24.7482V2.75669H26.0053ZM30.746 2.65744C31.2238 2.65744 31.6502 2.75669 32.0251 2.95517C32.4073 3.15365 32.7051 3.4477 32.9183 3.83732C33.1314 4.22693 33.238 4.69741 33.238 5.24875V8.83248H31.992V5.43621C31.992 4.89222 31.856 4.47687 31.584 4.19018C31.312 3.89613 30.9408 3.7491 30.4703 3.7491C29.9998 3.7491 29.6249 3.89613 29.3456 4.19018C29.0736 4.47687 28.9376 4.89222 28.9376 5.43621V8.83248H27.6805V2.75669H28.9376V3.45138C29.1434 3.20144 29.4044 3.00663 29.7205 2.86695C30.0439 2.72728 30.3858 2.65744 30.746 2.65744ZM37.3143 2.65744C37.7848 2.65744 38.2001 2.75301 38.5603 2.94414C38.9279 3.12792 39.2146 3.35949 39.4204 3.63883V2.75669H40.6885V8.93172C40.6885 9.49042 40.5709 9.98662 40.3356 10.4203C40.1004 10.8614 39.7586 11.2069 39.3101 11.4569C38.8691 11.7068 38.3398 11.8318 37.7223 11.8318C36.8989 11.8318 36.2153 11.637 35.6713 11.2474C35.1273 10.8651 34.8185 10.3432 34.745 9.68155H35.9911C36.0866 9.99765 36.2888 10.2513 36.5975 10.4424C36.9136 10.6409 37.2886 10.7401 37.7223 10.7401C38.2295 10.7401 38.6375 10.5857 38.9463 10.277C39.2624 9.96825 39.4204 9.51982 39.4204 8.93172V7.91725C39.2072 8.20395 38.9169 8.44654 38.5493 8.64502C38.1891 8.83616 37.7774 8.93172 37.3143 8.93172C36.785 8.93172 36.2998 8.7994 35.8587 8.53476C35.425 8.26276 35.0795 7.88785 34.8222 7.41002C34.5723 6.92484 34.4473 6.37717 34.4473 5.76702C34.4473 5.15686 34.5723 4.61655 34.8222 4.14607C35.0795 3.67559 35.425 3.3117 35.8587 3.05441C36.2998 2.78977 36.785 2.65744 37.3143 2.65744ZM39.4204 5.78907C39.4204 5.37005 39.3322 5.00616 39.1558 4.69741C38.9867 4.38866 38.7625 4.15342 38.4831 3.99169C38.2038 3.82997 37.9024 3.7491 37.5789 3.7491C37.2555 3.7491 36.9541 3.82997 36.6747 3.99169C36.3954 4.14607 36.1675 4.37763 35.9911 4.68638C35.822 4.98779 35.7374 5.348 35.7374 5.76702C35.7374 6.18604 35.822 6.5536 35.9911 6.8697C36.1675 7.1858 36.3954 7.42839 36.6747 7.59747C36.9614 7.7592 37.2628 7.84006 37.5789 7.84006C37.9024 7.84006 38.2038 7.7592 38.4831 7.59747C38.7625 7.43575 38.9867 7.20051 39.1558 6.89175C39.3322 6.57565 39.4204 6.20809 39.4204 5.78907ZM48.7492 8.90967C48.0361 8.90967 47.3782 8.74427 46.7754 8.41346C46.1799 8.0753 45.7058 7.6085 45.3529 7.01305C45.0074 6.41025 44.8346 5.73394 44.8346 4.98411C44.8346 4.23428 45.0074 3.56165 45.3529 2.9662C45.7058 2.37075 46.1799 1.90762 46.7754 1.57681C47.3782 1.23866 48.0361 1.06958 48.7492 1.06958C49.4696 1.06958 50.1275 1.23866 50.723 1.57681C51.3258 1.90762 51.7999 2.37075 52.1454 2.9662C52.4909 3.56165 52.6637 4.23428 52.6637 4.98411C52.6637 5.73394 52.4909 6.41025 52.1454 7.01305C51.7999 7.6085 51.3258 8.0753 50.723 8.41346C50.1275 8.74427 49.4696 8.90967 48.7492 8.90967ZM48.7492 7.81801C49.2564 7.81801 49.7085 7.70407 50.1055 7.47618C50.5024 7.24094 50.8112 6.91013 51.0317 6.48376C51.2596 6.05004 51.3736 5.55015 51.3736 4.98411C51.3736 4.41806 51.2596 3.92186 51.0317 3.49549C50.8112 3.06911 50.5024 2.74198 50.1055 2.5141C49.7085 2.28621 49.2564 2.17226 48.7492 2.17226C48.2419 2.17226 47.7898 2.28621 47.3929 2.5141C46.9959 2.74198 46.6835 3.06911 46.4556 3.49549C46.235 3.92186 46.1248 4.41806 46.1248 4.98411C46.1248 5.55015 46.235 6.05004 46.4556 6.48376C46.6835 6.91013 46.9959 7.24094 47.3929 7.47618C47.7898 7.70407 48.2419 7.81801 48.7492 7.81801ZM55.1826 3.64986C55.3958 3.37051 55.6861 3.13527 56.0537 2.94414C56.4213 2.75301 56.8366 2.65744 57.2997 2.65744C57.829 2.65744 58.3105 2.78977 58.7443 3.05441C59.1853 3.3117 59.5308 3.67559 59.7808 4.14607C60.0307 4.61655 60.1557 5.15686 60.1557 5.76702C60.1557 6.37717 60.0307 6.92484 59.7808 7.41002C59.5308 7.88785 59.1853 8.26276 58.7443 8.53476C58.3105 8.7994 57.829 8.93172 57.2997 8.93172C56.8366 8.93172 56.4249 8.83983 56.0647 8.65605C55.7045 8.46492 55.4105 8.22968 55.1826 7.95033V11.7215H53.9255V2.75669H55.1826V3.64986ZM58.8766 5.76702C58.8766 5.348 58.7884 4.98779 58.6119 4.68638C58.4429 4.37763 58.215 4.14607 57.9283 3.99169C57.6489 3.82997 57.3475 3.7491 57.0241 3.7491C56.708 3.7491 56.4066 3.82997 56.1199 3.99169C55.8405 4.15342 55.6126 4.38866 55.4362 4.69741C55.2671 5.00616 55.1826 5.37005 55.1826 5.78907C55.1826 6.20809 55.2671 6.57565 55.4362 6.89175C55.6126 7.20051 55.8405 7.43575 56.1199 7.59747C56.4066 7.7592 56.708 7.84006 57.0241 7.84006C57.3475 7.84006 57.6489 7.7592 57.9283 7.59747C58.215 7.42839 58.4429 7.1858 58.6119 6.8697C58.7884 6.5536 58.8766 6.18604 58.8766 5.76702ZM62.6807 3.64986C62.8939 3.37051 63.1842 3.13527 63.5518 2.94414C63.9194 2.75301 64.3347 2.65744 64.7978 2.65744C65.3271 2.65744 65.8086 2.78977 66.2424 3.05441C66.6834 3.3117 67.0289 3.67559 67.2789 4.14607C67.5288 4.61655 67.6538 5.15686 67.6538 5.76702C67.6538 6.37717 67.5288 6.92484 67.2789 7.41002C67.0289 7.88785 66.6834 8.26276 66.2424 8.53476C65.8086 8.7994 65.3271 8.93172 64.7978 8.93172C64.3347 8.93172 63.923 8.83983 63.5628 8.65605C63.2026 8.46492 62.9086 8.22968 62.6807 7.95033V11.7215H61.4236V2.75669H62.6807V3.64986ZM66.3747 5.76702C66.3747 5.348 66.2865 4.98779 66.11 4.68638C65.941 4.37763 65.7131 4.14607 65.4264 3.99169C65.147 3.82997 64.8456 3.7491 64.5222 3.7491C64.2061 3.7491 63.9047 3.82997 63.618 3.99169C63.3386 4.15342 63.1107 4.38866 62.9343 4.69741C62.7652 5.00616 62.6807 5.37005 62.6807 5.78907C62.6807 6.20809 62.7652 6.57565 62.9343 6.89175C63.1107 7.20051 63.3386 7.43575 63.618 7.59747C63.9047 7.7592 64.2061 7.84006 64.5222 7.84006C64.8456 7.84006 65.147 7.7592 65.4264 7.59747C65.7131 7.42839 65.941 7.1858 66.11 6.8697C66.2865 6.5536 66.3747 6.18604 66.3747 5.76702ZM71.5572 8.93172C70.9838 8.93172 70.4655 8.80308 70.0024 8.54578C69.5392 8.28114 69.1754 7.91358 68.9107 7.4431C68.6461 6.96527 68.5137 6.41392 68.5137 5.78907C68.5137 5.17157 68.6497 4.6239 68.9217 4.14607C69.1937 3.66824 69.565 3.30068 70.0354 3.04338C70.5059 2.78609 71.0315 2.65744 71.6123 2.65744C72.193 2.65744 72.7186 2.78609 73.1891 3.04338C73.6596 3.30068 74.0308 3.66824 74.3028 4.14607C74.5748 4.6239 74.7108 5.17157 74.7108 5.78907C74.7108 6.40657 74.5712 6.95424 74.2918 7.43207C74.0125 7.9099 73.6302 8.28114 73.145 8.54578C72.6672 8.80308 72.1379 8.93172 71.5572 8.93172ZM71.5572 7.84006C71.8806 7.84006 72.182 7.76288 72.4614 7.6085C72.7481 7.45412 72.9796 7.22256 73.156 6.91381C73.3325 6.60506 73.4207 6.23014 73.4207 5.78907C73.4207 5.348 73.3362 4.97676 73.1671 4.67536C72.998 4.36661 72.7738 4.13504 72.4944 3.98067C72.2151 3.82629 71.9137 3.7491 71.5902 3.7491C71.2668 3.7491 70.9654 3.82629 70.686 3.98067C70.414 4.13504 70.1972 4.36661 70.0354 4.67536C69.8737 4.97676 69.7929 5.348 69.7929 5.78907C69.7929 6.44333 69.9583 6.95056 70.2891 7.31078C70.6272 7.66363 71.0499 7.84006 71.5572 7.84006ZM77.2354 3.63883C77.4192 3.33008 77.6618 3.09117 77.9632 2.92209C78.2719 2.74566 78.6358 2.65744 79.0548 2.65744V3.95861H78.7351C78.2425 3.95861 77.8676 4.08358 77.6103 4.33353C77.3604 4.58347 77.2354 5.01719 77.2354 5.63469V8.83248H75.9783V2.75669H77.2354V3.63883ZM81.7017 3.78218V7.14537C81.7017 7.37326 81.7532 7.53866 81.8561 7.64158C81.9664 7.73715 82.1502 7.78493 82.4074 7.78493H83.1793V8.83248H82.1869C81.6209 8.83248 81.1871 8.70016 80.8857 8.43551C80.5843 8.17087 80.4336 7.74082 80.4336 7.14537V3.78218H79.7169V2.75669H80.4336V1.24601H81.7017V2.75669H83.1793V3.78218H81.7017ZM89.8651 2.75669V8.83248H88.6081V8.11574C88.4096 8.36568 88.1486 8.56416 87.8252 8.71119C87.5091 8.85086 87.1709 8.9207 86.8107 8.9207C86.3329 8.9207 85.9028 8.82145 85.5206 8.62297C85.1457 8.42449 84.8479 8.13044 84.6274 7.74082C84.4142 7.35121 84.3076 6.88073 84.3076 6.32939V2.75669H85.5536V6.14193C85.5536 6.68592 85.6896 7.10494 85.9616 7.39899C86.2336 7.68569 86.6049 7.82904 87.0754 7.82904C87.5458 7.82904 87.9171 7.68569 88.1891 7.39899C88.4684 7.10494 88.6081 6.68592 88.6081 6.14193V2.75669H89.8651ZM94.614 2.65744C95.0919 2.65744 95.5182 2.75669 95.8931 2.95517C96.2754 3.15365 96.5731 3.4477 96.7863 3.83732C96.9995 4.22693 97.1061 4.69741 97.1061 5.24875V8.83248H95.8601V5.43621C95.8601 4.89222 95.7241 4.47687 95.4521 4.19018C95.1801 3.89613 94.8088 3.7491 94.3384 3.7491C93.8679 3.7491 93.493 3.89613 93.2136 4.19018C92.9416 4.47687 92.8056 4.89222 92.8056 5.43621V8.83248H91.5486V2.75669H92.8056V3.45138C93.0115 3.20144 93.2724 3.00663 93.5885 2.86695C93.912 2.72728 94.2538 2.65744 94.614 2.65744ZM99.374 1.95173C99.1461 1.95173 98.9549 1.87454 98.8006 1.72016C98.6462 1.56579 98.569 1.37465 98.569 1.14677C98.569 0.918878 98.6462 0.727746 98.8006 0.57337C98.9549 0.418994 99.1461 0.341806 99.374 0.341806C99.5945 0.341806 99.7819 0.418994 99.9363 0.57337C100.091 0.727746 100.168 0.918878 100.168 1.14677C100.168 1.37465 100.091 1.56579 99.9363 1.72016C99.7819 1.87454 99.5945 1.95173 99.374 1.95173ZM99.9915 2.75669V8.83248H98.7344V2.75669H99.9915ZM103.133 3.78218V7.14537C103.133 7.37326 103.185 7.53866 103.288 7.64158C103.398 7.73715 103.582 7.78493 103.839 7.78493H104.611V8.83248H103.618C103.052 8.83248 102.619 8.70016 102.317 8.43551C102.016 8.17087 101.865 7.74082 101.865 7.14537V3.78218H101.148V2.75669H101.865V1.24601H103.133V2.75669H104.611V3.78218H103.133ZM111.264 2.75669L107.537 11.6884H106.235L107.47 8.73324L105.078 2.75669H106.478L108.187 7.38796L109.962 2.75669H111.264ZM112.744 8.90967C112.516 8.90967 112.325 8.83248 112.171 8.6781C112.017 8.52373 111.939 8.3326 111.939 8.10471C111.939 7.87682 112.017 7.68569 112.171 7.53131C112.325 7.37694 112.516 7.29975 112.744 7.29975C112.965 7.29975 113.152 7.37694 113.307 7.53131C113.461 7.68569 113.538 7.87682 113.538 8.10471C113.538 8.3326 113.461 8.52373 113.307 8.6781C113.152 8.83248 112.965 8.90967 112.744 8.90967ZM112.744 4.27839C112.516 4.27839 112.325 4.2012 112.171 4.04683C112.017 3.89245 111.939 3.70132 111.939 3.47343C111.939 3.24554 112.017 3.05441 112.171 2.90003C112.325 2.74566 112.516 2.66847 112.744 2.66847C112.965 2.66847 113.152 2.74566 113.307 2.90003C113.461 3.05441 113.538 3.24554 113.538 3.47343C113.538 3.70132 113.461 3.89245 113.307 4.04683C113.152 4.2012 112.965 4.27839 112.744 4.27839ZM121.835 8.83248L120.07 5.76702H119.111V8.83248H117.854V1.16882H120.5C121.089 1.16882 121.585 1.27174 121.989 1.47757C122.401 1.68341 122.706 1.95908 122.904 2.30459C123.11 2.65009 123.213 3.03603 123.213 3.4624C123.213 3.96229 123.066 4.41806 122.772 4.82973C122.485 5.23405 122.041 5.50972 121.438 5.65675L123.334 8.83248H121.835ZM119.111 4.76357H120.5C120.971 4.76357 121.324 4.64595 121.559 4.41071C121.802 4.17547 121.923 3.85937 121.923 3.4624C121.923 3.06544 121.805 2.75669 121.57 2.53615C121.335 2.30826 120.978 2.19432 120.5 2.19432H119.111V4.76357ZM127.051 8.93172C126.574 8.93172 126.144 8.84718 125.761 8.6781C125.386 8.50167 125.089 8.26644 124.868 7.97239C124.648 7.67099 124.53 7.3365 124.515 6.96894H125.816C125.838 7.22624 125.96 7.4431 126.18 7.61953C126.408 7.78861 126.691 7.87314 127.029 7.87314C127.382 7.87314 127.654 7.80698 127.845 7.67466C128.044 7.53499 128.143 7.35856 128.143 7.14537C128.143 6.91748 128.033 6.74841 127.812 6.63814C127.599 6.52787 127.257 6.40657 126.787 6.27425C126.331 6.14928 125.96 6.02798 125.673 5.91037C125.386 5.79275 125.136 5.61264 124.923 5.37005C124.717 5.12746 124.614 4.80768 124.614 4.41071C124.614 4.08726 124.71 3.79321 124.901 3.52857C125.092 3.25657 125.364 3.04338 125.717 2.88901C126.077 2.73463 126.489 2.65744 126.952 2.65744C127.643 2.65744 128.198 2.83387 128.617 3.18673C129.044 3.53224 129.271 4.0064 129.301 4.6092H128.044C128.022 4.3372 127.911 4.12034 127.713 3.95861C127.515 3.79689 127.246 3.71602 126.908 3.71602C126.577 3.71602 126.324 3.77851 126.147 3.90348C125.971 4.02845 125.883 4.19385 125.883 4.39969C125.883 4.56141 125.941 4.69741 126.059 4.80768C126.177 4.91795 126.32 5.00616 126.489 5.07232C126.658 5.13113 126.908 5.20832 127.239 5.30389C127.68 5.42151 128.04 5.5428 128.319 5.66777C128.606 5.78539 128.852 5.96182 129.058 6.19706C129.264 6.4323 129.371 6.74473 129.378 7.13435C129.378 7.47985 129.282 7.78861 129.091 8.0606C128.9 8.3326 128.628 8.54578 128.275 8.70016C127.93 8.85453 127.522 8.93172 127.051 8.93172ZM131.268 8.90967C131.041 8.90967 130.849 8.83248 130.695 8.6781C130.541 8.52373 130.463 8.3326 130.463 8.10471C130.463 7.87682 130.541 7.68569 130.695 7.53131C130.849 7.37694 131.041 7.29975 131.268 7.29975C131.489 7.29975 131.676 7.37694 131.831 7.53131C131.985 7.68569 132.062 7.87682 132.062 8.10471C132.062 8.3326 131.985 8.52373 131.831 8.6781C131.676 8.83248 131.489 8.90967 131.268 8.90967ZM141.352 1.87454H137.658V4.06888C137.813 3.86305 138.041 3.69029 138.342 3.55062C138.651 3.41095 138.978 3.34111 139.323 3.34111C139.941 3.34111 140.441 3.47343 140.823 3.73808C141.213 4.00272 141.488 4.3372 141.65 4.74152C141.819 5.14584 141.904 5.57221 141.904 6.02063C141.904 6.56462 141.797 7.04981 141.584 7.47618C141.378 7.8952 141.066 8.226 140.647 8.46859C140.235 8.71119 139.728 8.83248 139.125 8.83248C138.324 8.83248 137.68 8.634 137.195 8.23703C136.71 7.84006 136.42 7.31445 136.324 6.66019H137.548C137.629 7.0057 137.809 7.28137 138.088 7.4872C138.368 7.68569 138.717 7.78493 139.136 7.78493C139.658 7.78493 140.047 7.62688 140.305 7.31078C140.569 6.99467 140.702 6.57565 140.702 6.05371C140.702 5.52443 140.569 5.12011 140.305 4.84076C140.04 4.55406 139.65 4.41071 139.136 4.41071C138.776 4.41071 138.471 4.5026 138.221 4.68638C137.978 4.86281 137.802 5.10541 137.691 5.41416H136.5V0.771853H141.352V1.87454ZM144.781 7.3218L143.447 10.3652H142.631L143.413 7.3218H144.781ZM150.921 1.87454H147.227V4.06888C147.382 3.86305 147.609 3.69029 147.911 3.55062C148.22 3.41095 148.547 3.34111 148.892 3.34111C149.51 3.34111 150.01 3.47343 150.392 3.73808C150.782 4.00272 151.057 4.3372 151.219 4.74152C151.388 5.14584 151.473 5.57221 151.473 6.02063C151.473 6.56462 151.366 7.04981 151.153 7.47618C150.947 7.8952 150.634 8.226 150.215 8.46859C149.804 8.71119 149.297 8.83248 148.694 8.83248C147.892 8.83248 147.249 8.634 146.764 8.23703C146.279 7.84006 145.988 7.31445 145.893 6.66019H147.117C147.198 7.0057 147.378 7.28137 147.657 7.4872C147.937 7.68569 148.286 7.78493 148.705 7.78493C149.227 7.78493 149.616 7.62688 149.874 7.31078C150.138 6.99467 150.271 6.57565 150.271 6.05371C150.271 5.52443 150.138 5.12011 149.874 4.84076C149.609 4.55406 149.219 4.41071 148.705 4.41071C148.345 4.41071 148.039 4.5026 147.79 4.68638C147.547 4.86281 147.371 5.10541 147.26 5.41416H146.069V0.771853H150.921V1.87454ZM152.784 2.77874C152.828 2.09508 153.089 1.56211 153.567 1.17985C154.052 0.797582 154.669 0.60645 155.419 0.60645C155.934 0.60645 156.379 0.698341 156.754 0.882122C157.128 1.0659 157.411 1.31584 157.603 1.63195C157.794 1.94805 157.889 2.30459 157.889 2.70155C157.889 3.15733 157.768 3.54694 157.525 3.8704C157.283 4.19385 156.992 4.41071 156.654 4.52098V4.56509C157.088 4.69741 157.426 4.94 157.669 5.29286C157.911 5.63837 158.033 6.08312 158.033 6.62711C158.033 7.06083 157.933 7.44677 157.735 7.78493C157.536 8.12309 157.242 8.39141 156.853 8.58989C156.463 8.78102 155.996 8.87659 155.452 8.87659C154.658 8.87659 154.004 8.67443 153.49 8.27011C152.982 7.85844 152.71 7.27034 152.674 6.50582H153.887C153.916 6.89543 154.067 7.21521 154.339 7.46515C154.611 7.70774 154.978 7.82904 155.441 7.82904C155.89 7.82904 156.235 7.70774 156.478 7.46515C156.72 7.21521 156.842 6.89543 156.842 6.50582C156.842 5.99123 156.676 5.62734 156.346 5.41416C156.022 5.19362 155.522 5.08335 154.846 5.08335H154.559V4.04683H154.857C155.452 4.03948 155.904 3.94023 156.213 3.7491C156.529 3.55797 156.687 3.25657 156.687 2.8449C156.687 2.49204 156.573 2.21269 156.346 2.00686C156.118 1.79367 155.794 1.68708 155.375 1.68708C154.964 1.68708 154.644 1.79367 154.416 2.00686C154.188 2.21269 154.052 2.46999 154.008 2.77874H152.784ZM159.378 4.70844C159.378 3.43668 159.591 2.44426 160.018 1.73119C160.451 1.01077 161.194 0.650558 162.245 0.650558C163.296 0.650558 164.035 1.01077 164.461 1.73119C164.895 2.44426 165.112 3.43668 165.112 4.70844C165.112 5.9949 164.895 7.00202 164.461 7.7298C164.035 8.45022 163.296 8.81043 162.245 8.81043C161.194 8.81043 160.451 8.45022 160.018 7.7298C159.591 7.00202 159.378 5.9949 159.378 4.70844ZM163.877 4.70844C163.877 4.11299 163.836 3.60943 163.756 3.19776C163.682 2.78609 163.528 2.45161 163.292 2.19432C163.057 1.92967 162.708 1.79735 162.245 1.79735C161.782 1.79735 161.433 1.92967 161.197 2.19432C160.962 2.45161 160.804 2.78609 160.723 3.19776C160.65 3.60943 160.613 4.11299 160.613 4.70844C160.613 5.32594 160.65 5.8442 160.723 6.26322C160.797 6.68224 160.951 7.0204 161.186 7.27769C161.429 7.53499 161.782 7.66363 162.245 7.66363C162.708 7.66363 163.057 7.53499 163.292 7.27769C163.535 7.0204 163.693 6.68224 163.767 6.26322C163.84 5.8442 163.877 5.32594 163.877 4.70844Z" fill="url(#paint0_linear_1_95)"/>
<path d="M173.999 10.0785H172.742V-2.65888e-05H173.999V10.0785ZM184.314 8.90967C183.8 8.90967 183.337 8.82145 182.925 8.64502C182.513 8.46124 182.19 8.20395 181.955 7.87314C181.719 7.54234 181.602 7.1564 181.602 6.71533H182.947C182.976 7.04613 183.105 7.31813 183.333 7.53131C183.568 7.7445 183.895 7.85109 184.314 7.85109C184.748 7.85109 185.086 7.74817 185.329 7.54234C185.571 7.32915 185.693 7.05716 185.693 6.72635C185.693 6.46906 185.615 6.25955 185.461 6.09782C185.314 5.93609 185.127 5.81112 184.899 5.72291C184.678 5.63469 184.369 5.53913 183.972 5.43621C183.473 5.30389 183.065 5.17157 182.748 5.03924C182.44 4.89957 182.175 4.68639 181.955 4.39969C181.734 4.11299 181.624 3.73072 181.624 3.25289C181.624 2.81182 181.734 2.42588 181.955 2.09508C182.175 1.76427 182.484 1.51065 182.881 1.33422C183.278 1.15779 183.737 1.06958 184.259 1.06958C185.002 1.06958 185.608 1.25703 186.079 1.63195C186.556 1.99951 186.821 2.50674 186.872 3.15365H185.483C185.461 2.87431 185.329 2.63539 185.086 2.43691C184.844 2.23842 184.524 2.13918 184.127 2.13918C183.767 2.13918 183.473 2.23107 183.245 2.41485C183.017 2.59863 182.903 2.86328 182.903 3.20879C182.903 3.44403 182.973 3.63883 183.112 3.79321C183.259 3.94023 183.443 4.05785 183.664 4.14607C183.884 4.23428 184.186 4.32985 184.568 4.43277C185.075 4.57244 185.487 4.71211 185.803 4.85179C186.126 4.99146 186.398 5.20832 186.619 5.50237C186.847 5.78907 186.961 6.17501 186.961 6.66019C186.961 7.04981 186.854 7.41737 186.641 7.76288C186.435 8.10838 186.13 8.38773 185.726 8.60092C185.329 8.80675 184.858 8.90967 184.314 8.90967ZM191.104 8.93172C190.531 8.93172 190.013 8.80308 189.549 8.54578C189.086 8.28114 188.722 7.91358 188.458 7.4431C188.193 6.96527 188.061 6.41392 188.061 5.78907C188.061 5.17157 188.197 4.6239 188.469 4.14607C188.741 3.66824 189.112 3.30068 189.583 3.04338C190.053 2.78609 190.579 2.65744 191.159 2.65744C191.74 2.65744 192.266 2.78609 192.736 3.04338C193.207 3.30068 193.578 3.66824 193.85 4.14607C194.122 4.6239 194.258 5.17157 194.258 5.78907C194.258 6.40657 194.118 6.95424 193.839 7.43207C193.56 7.9099 193.177 8.28114 192.692 8.54578C192.214 8.80308 191.685 8.93172 191.104 8.93172ZM191.104 7.84006C191.428 7.84006 191.729 7.76288 192.008 7.6085C192.295 7.45412 192.527 7.22256 192.703 6.91381C192.88 6.60506 192.968 6.23014 192.968 5.78907C192.968 5.348 192.883 4.97676 192.714 4.67536C192.545 4.36661 192.321 4.13504 192.042 3.98067C191.762 3.82629 191.461 3.7491 191.137 3.7491C190.814 3.7491 190.512 3.82629 190.233 3.98067C189.961 4.13504 189.744 4.36661 189.583 4.67536C189.421 4.97676 189.34 5.348 189.34 5.78907C189.34 6.44333 189.505 6.95056 189.836 7.31078C190.174 7.66363 190.597 7.84006 191.104 7.84006ZM196.782 0.672612V8.83248H195.525V0.672612H196.782ZM198.039 5.76702C198.039 5.15686 198.164 4.61655 198.414 4.14607C198.671 3.67559 199.016 3.3117 199.45 3.05441C199.891 2.78977 200.38 2.65744 200.917 2.65744C201.314 2.65744 201.703 2.74566 202.086 2.92209C202.475 3.09117 202.784 3.31906 203.012 3.60575V0.672612H204.28V8.83248H203.012V7.91725C202.806 8.2113 202.519 8.45389 202.152 8.64502C201.792 8.83616 201.376 8.93172 200.906 8.93172C200.376 8.93172 199.891 8.7994 199.45 8.53476C199.016 8.26276 198.671 7.88785 198.414 7.41002C198.164 6.92484 198.039 6.37717 198.039 5.76702ZM203.012 5.78907C203.012 5.37005 202.924 5.00616 202.747 4.69741C202.578 4.38866 202.354 4.15342 202.075 3.99169C201.795 3.82997 201.494 3.7491 201.17 3.7491C200.847 3.7491 200.545 3.82997 200.266 3.99169C199.987 4.14607 199.759 4.37763 199.582 4.68638C199.413 4.98779 199.329 5.348 199.329 5.76702C199.329 6.18604 199.413 6.5536 199.582 6.8697C199.759 7.1858 199.987 7.42839 200.266 7.59747C200.553 7.7592 200.854 7.84006 201.17 7.84006C201.494 7.84006 201.795 7.7592 202.075 7.59747C202.354 7.43575 202.578 7.20051 202.747 6.89175C202.924 6.57565 203.012 6.20809 203.012 5.78907ZM206.463 8.90967C206.235 8.90967 206.044 8.83248 205.89 8.6781C205.735 8.52373 205.658 8.3326 205.658 8.10471C205.658 7.87682 205.735 7.68569 205.89 7.53131C206.044 7.37694 206.235 7.29975 206.463 7.29975C206.684 7.29975 206.871 7.37694 207.025 7.53131C207.18 7.68569 207.257 7.87682 207.257 8.10471C207.257 8.3326 207.18 8.52373 207.025 8.6781C206.871 8.83248 206.684 8.90967 206.463 8.90967ZM206.463 4.27839C206.235 4.27839 206.044 4.2012 205.89 4.04683C205.735 3.89245 205.658 3.70132 205.658 3.47343C205.658 3.24554 205.735 3.05441 205.89 2.90003C206.044 2.74566 206.235 2.66847 206.463 2.66847C206.684 2.66847 206.871 2.74566 207.025 2.90003C207.18 3.05441 207.257 3.24554 207.257 3.47343C207.257 3.70132 207.18 3.89245 207.025 4.04683C206.871 4.2012 206.684 4.27839 206.463 4.27839ZM216.59 1.87454H212.896V4.06888C213.05 3.86305 213.278 3.69029 213.58 3.55062C213.888 3.41095 214.216 3.34111 214.561 3.34111C215.179 3.34111 215.678 3.47343 216.061 3.73808C216.45 4.00272 216.726 4.3372 216.888 4.74152C217.057 5.14584 217.141 5.57221 217.141 6.02063C217.141 6.56462 217.035 7.04981 216.822 7.47618C216.616 7.8952 216.303 8.226 215.884 8.46859C215.473 8.71119 214.965 8.83248 214.363 8.83248C213.561 8.83248 212.918 8.634 212.433 8.23703C211.948 7.84006 211.657 7.31445 211.562 6.66019H212.786C212.867 7.0057 213.047 7.28137 213.326 7.4872C213.605 7.68569 213.955 7.78493 214.374 7.78493C214.896 7.78493 215.285 7.62688 215.542 7.31078C215.807 6.99467 215.939 6.57565 215.939 6.05371C215.939 5.52443 215.807 5.12011 215.542 4.84076C215.278 4.55406 214.888 4.41071 214.374 4.41071C214.013 4.41071 213.708 4.5026 213.458 4.68638C213.216 4.86281 213.039 5.10541 212.929 5.41416H211.738V0.771853H216.59V1.87454ZM224.055 8.90967C223.54 8.90967 223.077 8.82145 222.665 8.64502C222.253 8.46124 221.93 8.20395 221.695 7.87314C221.46 7.54234 221.342 7.1564 221.342 6.71533H222.687C222.717 7.04613 222.845 7.31813 223.073 7.53131C223.308 7.7445 223.635 7.85109 224.055 7.85109C224.488 7.85109 224.826 7.74817 225.069 7.54234C225.312 7.32915 225.433 7.05716 225.433 6.72635C225.433 6.46906 225.356 6.25955 225.201 6.09782C225.054 5.93609 224.867 5.81112 224.639 5.72291C224.418 5.63469 224.11 5.53913 223.713 5.43621C223.213 5.30389 222.805 5.17157 222.489 5.03924C222.18 4.89957 221.915 4.68639 221.695 4.39969C221.474 4.11299 221.364 3.73072 221.364 3.25289C221.364 2.81182 221.474 2.42588 221.695 2.09508C221.915 1.76427 222.224 1.51065 222.621 1.33422C223.018 1.15779 223.477 1.06958 223.999 1.06958C224.742 1.06958 225.348 1.25703 225.819 1.63195C226.297 1.99951 226.561 2.50674 226.613 3.15365H225.223C225.201 2.87431 225.069 2.63539 224.826 2.43691C224.584 2.23842 224.264 2.13918 223.867 2.13918C223.507 2.13918 223.213 2.23107 222.985 2.41485C222.757 2.59863 222.643 2.86328 222.643 3.20879C222.643 3.44403 222.713 3.63883 222.853 3.79321C223 3.94023 223.183 4.05785 223.404 4.14607C223.624 4.23428 223.926 4.32985 224.308 4.43277C224.815 4.57244 225.227 4.71211 225.543 4.85179C225.867 4.99146 226.139 5.20832 226.359 5.50237C226.587 5.78907 226.701 6.17501 226.701 6.66019C226.701 7.04981 226.594 7.41737 226.381 7.76288C226.175 8.10838 225.87 8.38773 225.466 8.60092C225.069 8.80675 224.598 8.90967 224.055 8.90967ZM233.778 5.64572C233.778 5.87361 233.763 6.07944 233.734 6.26322H229.091C229.128 6.74841 229.308 7.13802 229.632 7.43207C229.955 7.72612 230.352 7.87314 230.822 7.87314C231.499 7.87314 231.977 7.59012 232.256 7.02408H233.612C233.428 7.58277 233.094 8.04222 232.609 8.40243C232.131 8.75529 231.536 8.93172 230.822 8.93172C230.242 8.93172 229.72 8.80308 229.257 8.54578C228.801 8.28114 228.441 7.91358 228.176 7.4431C227.919 6.96527 227.79 6.41392 227.79 5.78907C227.79 5.16421 227.915 4.61655 228.165 4.14607C228.422 3.66824 228.779 3.30068 229.235 3.04338C229.698 2.78609 230.227 2.65744 230.822 2.65744C231.396 2.65744 231.907 2.78242 232.355 3.03236C232.804 3.2823 233.153 3.63516 233.403 4.09094C233.653 4.53936 233.778 5.05762 233.778 5.64572ZM232.465 5.24875C232.458 4.78563 232.293 4.41439 231.969 4.13504C231.646 3.8557 231.245 3.71602 230.767 3.71602C230.334 3.71602 229.962 3.8557 229.654 4.13504C229.345 4.40704 229.161 4.77828 229.102 5.24875H232.465ZM236.297 3.63883C236.48 3.33008 236.723 3.09117 237.024 2.92209C237.333 2.74566 237.697 2.65744 238.116 2.65744V3.95861H237.796C237.304 3.95861 236.929 4.08358 236.672 4.33353C236.422 4.58347 236.297 5.01719 236.297 5.63469V8.83248H235.04V2.75669H236.297V3.63883ZM241.645 7.70774L243.365 2.75669H244.7L242.384 8.83248H240.884L238.58 2.75669H239.925L241.645 7.70774ZM246.314 1.95173C246.086 1.95173 245.895 1.87454 245.741 1.72016C245.586 1.56579 245.509 1.37465 245.509 1.14677C245.509 0.918878 245.586 0.727746 245.741 0.57337C245.895 0.418994 246.086 0.341806 246.314 0.341806C246.535 0.341806 246.722 0.418994 246.876 0.57337C247.031 0.727746 247.108 0.918878 247.108 1.14677C247.108 1.37465 247.031 1.56579 246.876 1.72016C246.722 1.87454 246.535 1.95173 246.314 1.95173ZM246.932 2.75669V8.83248H245.675V2.75669H246.932ZM248.188 5.78907C248.188 5.16421 248.313 4.61655 248.563 4.14607C248.82 3.66824 249.173 3.30068 249.621 3.04338C250.07 2.78609 250.584 2.65744 251.165 2.65744C251.9 2.65744 252.507 2.83387 252.984 3.18673C253.47 3.53224 253.797 4.02845 253.966 4.67536H252.61C252.499 4.37396 252.323 4.13872 252.08 3.96964C251.838 3.80056 251.533 3.71602 251.165 3.71602C250.65 3.71602 250.239 3.8998 249.93 4.26736C249.629 4.62758 249.478 5.13481 249.478 5.78907C249.478 6.44333 249.629 6.95424 249.93 7.3218C250.239 7.68936 250.65 7.87314 251.165 7.87314C251.893 7.87314 252.374 7.55337 252.61 6.91381H253.966C253.789 7.53131 253.459 8.02384 252.973 8.39141C252.488 8.75162 251.885 8.93172 251.165 8.93172C250.584 8.93172 250.07 8.80308 249.621 8.54578C249.173 8.28114 248.82 7.91358 248.563 7.4431C248.313 6.96527 248.188 6.41392 248.188 5.78907ZM260.812 5.64572C260.812 5.87361 260.797 6.07944 260.768 6.26322H256.126C256.162 6.74841 256.342 7.13802 256.666 7.43207C256.989 7.72612 257.386 7.87314 257.857 7.87314C258.533 7.87314 259.011 7.59012 259.29 7.02408H260.647C260.463 7.58277 260.128 8.04222 259.643 8.40243C259.165 8.75529 258.57 8.93172 257.857 8.93172C257.276 8.93172 256.754 8.80308 256.291 8.54578C255.835 8.28114 255.475 7.91358 255.21 7.4431C254.953 6.96527 254.824 6.41392 254.824 5.78907C254.824 5.16421 254.949 4.61655 255.199 4.14607C255.457 3.66824 255.813 3.30068 256.269 3.04338C256.732 2.78609 257.261 2.65744 257.857 2.65744C258.43 2.65744 258.941 2.78242 259.39 3.03236C259.838 3.2823 260.187 3.63516 260.437 4.09094C260.687 4.53936 260.812 5.05762 260.812 5.64572ZM259.5 5.24875C259.492 4.78563 259.327 4.41439 259.004 4.13504C258.68 3.8557 258.28 3.71602 257.802 3.71602C257.368 3.71602 256.997 3.8557 256.688 4.13504C256.379 4.40704 256.195 4.77828 256.137 5.24875H259.5ZM264.279 8.93172C263.801 8.93172 263.371 8.84718 262.989 8.6781C262.614 8.50167 262.317 8.26644 262.096 7.97239C261.875 7.67099 261.758 7.3365 261.743 6.96894H263.044C263.066 7.22624 263.188 7.4431 263.408 7.61953C263.636 7.78861 263.919 7.87314 264.257 7.87314C264.61 7.87314 264.882 7.80698 265.073 7.67466C265.272 7.53499 265.371 7.35856 265.371 7.14537C265.371 6.91748 265.261 6.74841 265.04 6.63814C264.827 6.52787 264.485 6.40657 264.015 6.27425C263.559 6.14928 263.188 6.02798 262.901 5.91037C262.614 5.79275 262.364 5.61264 262.151 5.37005C261.945 5.12746 261.842 4.80768 261.842 4.41071C261.842 4.08726 261.938 3.79321 262.129 3.52857C262.32 3.25657 262.592 3.04338 262.945 2.88901C263.305 2.73463 263.717 2.65744 264.18 2.65744C264.871 2.65744 265.426 2.83387 265.845 3.18673C266.271 3.53224 266.499 4.0064 266.529 4.6092H265.272C265.25 4.3372 265.139 4.12034 264.941 3.95861C264.742 3.79689 264.474 3.71602 264.136 3.71602C263.805 3.71602 263.552 3.77851 263.375 3.90348C263.199 4.02845 263.11 4.19385 263.11 4.39969C263.11 4.56141 263.169 4.69741 263.287 4.80768C263.405 4.91795 263.548 5.00616 263.717 5.07232C263.886 5.13113 264.136 5.20832 264.467 5.30389C264.908 5.42151 265.268 5.5428 265.547 5.66777C265.834 5.78539 266.08 5.96182 266.286 6.19706C266.492 6.4323 266.599 6.74473 266.606 7.13435C266.606 7.47985 266.51 7.78861 266.319 8.0606C266.128 8.3326 265.856 8.54578 265.503 8.70016C265.158 8.85453 264.75 8.93172 264.279 8.93172ZM273.084 8.93172C272.606 8.93172 272.176 8.84718 271.794 8.6781C271.419 8.50167 271.121 8.26644 270.9 7.97239C270.68 7.67099 270.562 7.3365 270.548 6.96894H271.849C271.871 7.22624 271.992 7.4431 272.213 7.61953C272.44 7.78861 272.723 7.87314 273.062 7.87314C273.415 7.87314 273.687 7.80698 273.878 7.67466C274.076 7.53499 274.175 7.35856 274.175 7.14537C274.175 6.91748 274.065 6.74841 273.845 6.63814C273.631 6.52787 273.29 6.40657 272.819 6.27425C272.363 6.14928 271.992 6.02798 271.705 5.91037C271.419 5.79275 271.169 5.61264 270.956 5.37005C270.75 5.12746 270.647 4.80768 270.647 4.41071C270.647 4.08726 270.742 3.79321 270.933 3.52857C271.125 3.25657 271.397 3.04338 271.749 2.88901C272.11 2.73463 272.521 2.65744 272.984 2.65744C273.675 2.65744 274.23 2.83387 274.65 3.18673C275.076 3.53224 275.304 4.0064 275.333 4.6092H274.076C274.054 4.3372 273.944 4.12034 273.745 3.95861C273.547 3.79689 273.279 3.71602 272.94 3.71602C272.61 3.71602 272.356 3.77851 272.18 3.90348C272.003 4.02845 271.915 4.19385 271.915 4.39969C271.915 4.56141 271.974 4.69741 272.091 4.80768C272.209 4.91795 272.352 5.00616 272.521 5.07232C272.69 5.13113 272.94 5.20832 273.271 5.30389C273.712 5.42151 274.072 5.5428 274.352 5.66777C274.638 5.78539 274.885 5.96182 275.091 6.19706C275.296 6.4323 275.403 6.74473 275.41 7.13435C275.41 7.47985 275.315 7.78861 275.124 8.0606C274.933 8.3326 274.661 8.54578 274.308 8.70016C273.962 8.85453 273.554 8.93172 273.084 8.93172ZM279.429 8.93172C278.855 8.93172 278.337 8.80308 277.874 8.54578C277.411 8.28114 277.047 7.91358 276.782 7.4431C276.518 6.96527 276.385 6.41392 276.385 5.78907C276.385 5.17157 276.521 4.6239 276.793 4.14607C277.065 3.66824 277.437 3.30068 277.907 3.04338C278.378 2.78609 278.903 2.65744 279.484 2.65744C280.065 2.65744 280.59 2.78609 281.061 3.04338C281.531 3.30068 281.903 3.66824 282.175 4.14607C282.447 4.6239 282.583 5.17157 282.583 5.78907C282.583 6.40657 282.443 6.95424 282.164 7.43207C281.884 7.9099 281.502 8.28114 281.017 8.54578C280.539 8.80308 280.01 8.93172 279.429 8.93172ZM279.429 7.84006C279.752 7.84006 280.054 7.76288 280.333 7.6085C280.62 7.45412 280.851 7.22256 281.028 6.91381C281.204 6.60506 281.292 6.23014 281.292 5.78907C281.292 5.348 281.208 4.97676 281.039 4.67536C280.87 4.36661 280.646 4.13504 280.366 3.98067C280.087 3.82629 279.785 3.7491 279.462 3.7491C279.139 3.7491 278.837 3.82629 278.558 3.98067C278.286 4.13504 278.069 4.36661 277.907 4.67536C277.745 4.97676 277.665 5.348 277.665 5.78907C277.665 6.44333 277.83 6.95056 278.161 7.31078C278.499 7.66363 278.922 7.84006 279.429 7.84006ZM289.287 3.78218H288.162V8.83248H286.894V3.78218H286.177V2.75669H286.894V2.32664C286.894 1.62827 287.077 1.12104 287.445 0.804934C287.82 0.48148 288.404 0.319753 289.198 0.319753V1.3673C288.816 1.3673 288.548 1.44082 288.393 1.58784C288.239 1.72751 288.162 1.97378 288.162 2.32664V2.75669H289.287V3.78218ZM290.006 5.76702C290.006 5.15686 290.131 4.61655 290.381 4.14607C290.639 3.67559 290.984 3.3117 291.418 3.05441C291.859 2.78977 292.344 2.65744 292.873 2.65744C293.351 2.65744 293.767 2.75301 294.119 2.94414C294.48 3.12792 294.766 3.35949 294.979 3.63883V2.75669H296.248V8.83248H294.979V7.92828C294.766 8.21498 294.476 8.45389 294.108 8.64502C293.741 8.83616 293.322 8.93172 292.851 8.93172C292.329 8.93172 291.852 8.7994 291.418 8.53476C290.984 8.26276 290.639 7.88785 290.381 7.41002C290.131 6.92484 290.006 6.37717 290.006 5.76702ZM294.979 5.78907C294.979 5.37005 294.891 5.00616 294.715 4.69741C294.546 4.38866 294.322 4.15342 294.042 3.99169C293.763 3.82997 293.461 3.7491 293.138 3.7491C292.815 3.7491 292.513 3.82997 292.234 3.99169C291.954 4.14607 291.727 4.37763 291.55 4.68638C291.381 4.98779 291.297 5.348 291.297 5.76702C291.297 6.18604 291.381 6.5536 291.55 6.8697C291.727 7.1858 291.954 7.42839 292.234 7.59747C292.52 7.7592 292.822 7.84006 293.138 7.84006C293.461 7.84006 293.763 7.7592 294.042 7.59747C294.322 7.43575 294.546 7.20051 294.715 6.89175C294.891 6.57565 294.979 6.20809 294.979 5.78907ZM299.181 3.63883C299.364 3.33008 299.607 3.09117 299.908 2.92209C300.217 2.74566 300.581 2.65744 301 2.65744V3.95861H300.68C300.188 3.95861 299.813 4.08358 299.555 4.33353C299.306 4.58347 299.181 5.01719 299.181 5.63469V8.83248H297.923V2.75669H299.181V3.63883Z" fill="#282828" fill-opacity="0.8"/>
<defs>
<linearGradient id="paint0_linear_1_95" x1="-0.827026" y1="4.82272" x2="95.7451" y2="18.3877" gradientUnits="userSpaceOnUse">
<stop stop-color="#C6951A"/>
<stop offset="0.5" stop-color="#FFEC9E"/>
<stop offset="1" stop-color="#C6951A"/>
</linearGradient>
</defs>
</svg>
