<svg width="14" height="13" viewBox="0 0 14 13" fill="none" xmlns="http://www.w3.org/2000/svg">
<path d="M13.7999 10.2551L8.33461 0.763751C8.19804 0.531216 8.00306 0.33841 7.76902 0.204443C7.53497 0.0704763 7.26998 0 7.0003 0C6.73063 0 6.46564 0.0704763 6.23159 0.204443C5.99754 0.33841 5.80257 0.531216 5.666 0.763751L0.20066 10.2551C0.0692518 10.48 0 10.7359 0 10.9963C0 11.2568 0.0692518 11.5126 0.20066 11.7376C0.335484 11.9715 0.530124 12.1653 0.764606 12.2992C0.999088 12.4331 1.26497 12.5022 1.53496 12.4994H12.4656C12.7354 12.502 13.001 12.4328 13.2353 12.2989C13.4695 12.165 13.664 11.9713 13.7987 11.7376C13.9303 11.5127 13.9998 11.257 14 10.9965C14.0002 10.736 13.9312 10.4802 13.7999 10.2551ZM6.50033 4.99978C6.50033 4.86718 6.55301 4.74001 6.64677 4.64624C6.74053 4.55248 6.8677 4.49981 7.0003 4.49981C7.13291 4.49981 7.26008 4.55248 7.35384 4.64624C7.4476 4.74001 7.50028 4.86718 7.50028 4.99978V7.49965C7.50028 7.63225 7.4476 7.75942 7.35384 7.85318C7.26008 7.94695 7.13291 7.99962 7.0003 7.99962C6.8677 7.99962 6.74053 7.94695 6.64677 7.85318C6.55301 7.75942 6.50033 7.63225 6.50033 7.49965V4.99978ZM7.0003 10.4995C6.85198 10.4995 6.70698 10.4555 6.58365 10.3731C6.46032 10.2907 6.36419 10.1736 6.30743 10.0365C6.25067 9.89949 6.23582 9.7487 6.26475 9.60322C6.29369 9.45774 6.36512 9.32411 6.47 9.21923C6.57489 9.11435 6.70852 9.04292 6.85399 9.01398C6.99947 8.98504 7.15026 8.9999 7.2873 9.05666C7.42434 9.11342 7.54147 9.20954 7.62387 9.33288C7.70628 9.45621 7.75026 9.6012 7.75026 9.74953C7.75026 9.94843 7.67125 10.1392 7.53061 10.2798C7.38996 10.4205 7.19921 10.4995 7.0003 10.4995Z" fill="#FFDE50"/>
</svg>
